<svg width="121" height="41" viewBox="0 0 121 41" fill="none" xmlns="http://www.w3.org/2000/svg">
<path d="M44.9644 19.8462C45.1995 20.0034 45.4135 20.26 45.6065 20.6159C45.81 20.9561 45.9729 21.3316 46.0952 21.7423C46.2305 22.1504 46.3019 22.5441 46.3092 22.9232C46.3039 22.9651 46.3089 23.0932 46.3243 23.3077C46.3502 23.5064 46.3773 23.7457 46.4056 24.0256C46.4314 24.2923 46.448 24.5473 46.4555 24.7905C46.4735 25.018 46.4719 25.1814 46.4508 25.2808C46.495 25.5031 46.4803 25.7371 46.4067 25.9828C46.3462 26.2259 46.3249 26.4612 46.3429 26.6887C46.3086 26.8586 46.2679 27.0299 46.2205 27.2024C46.1863 27.3723 46.1468 27.55 46.1021 27.7356C46.0679 27.9056 46.0271 28.0768 45.9798 28.2493C45.9455 28.4192 45.9113 28.5891 45.877 28.759C45.7007 29.5145 45.4408 30.2593 45.0971 30.9936C44.7535 31.7279 44.3735 32.3471 43.9569 32.8511C43.6793 33.1645 43.3978 33.4243 43.1125 33.6304C42.8298 33.8497 42.5956 33.9709 42.4099 33.9942C42.2739 33.994 42.1405 34.0069 42.0097 34.0328C41.8816 34.0719 41.7468 34.1122 41.6056 34.1538C41.4774 34.1929 41.2747 34.1991 40.9976 34.1726C40.723 34.1591 40.4564 34.1169 40.1976 34.0459C39.9414 33.988 39.7598 33.9289 39.6527 33.8686C39.5586 33.8057 39.4659 33.7493 39.3744 33.6995C39.2804 33.6366 39.1863 33.5737 39.0923 33.5108C39.0113 33.4453 38.9251 33.3877 38.8337 33.3379C38.7396 33.275 38.6456 33.2121 38.5515 33.1492C38.4 33.0705 38.306 32.9736 38.2696 32.8585C38.2436 32.7277 38.2306 32.6623 38.2306 32.6623C38.1419 32.5576 38.1029 32.3954 38.1137 32.1758C38.1349 31.9405 38.2098 31.7353 38.3381 31.5603C38.4665 31.3853 38.6314 31.3254 38.8326 31.3806C39.1201 31.4595 39.3044 31.5317 39.3853 31.5972C39.4663 31.6626 39.542 31.736 39.6125 31.8171C39.6359 31.9348 39.7351 32.0579 39.9101 32.1863C40.0982 32.3121 40.2981 32.3947 40.5098 32.4343C40.5909 32.4318 40.672 32.4293 40.753 32.4268C40.8472 32.4217 40.9348 32.4179 41.0158 32.4154C41.0969 32.4129 41.178 32.4104 41.259 32.4079C41.5572 32.3351 41.8425 32.1629 42.1149 31.8914C42.3846 31.6068 42.623 31.3012 42.8301 30.9746C43.0476 30.6324 43.2036 30.3567 43.298 30.1477C43.3663 29.9438 43.4294 29.7478 43.4872 29.5596C43.558 29.3688 43.6224 29.1794 43.6802 28.9912C43.7485 28.7873 43.8115 28.5913 43.8693 28.4031C43.9402 28.2123 44.0045 28.0228 44.0623 27.8346C44.0939 27.7196 44.1189 27.6059 44.1374 27.4935C44.1689 27.3785 44.2005 27.2635 44.232 27.1485C44.0489 27.1848 43.8305 27.2486 43.5767 27.3397C43.3334 27.4152 43.0783 27.4998 42.8115 27.5935C42.5446 27.6873 42.2882 27.7654 42.0424 27.8278C41.8095 27.8876 41.599 27.9226 41.4107 27.9327C41.1833 27.8827 41.0004 27.7831 40.862 27.6338C40.7367 27.482 40.6089 27.2831 40.4785 27.0371C40.3612 26.7885 40.3419 26.5884 40.4205 26.4369C40.4966 26.2723 40.6184 26.1325 40.7859 26.0177L42.2572 25.7257C42.6026 25.6164 42.9687 25.5437 43.3558 25.5077C43.7559 25.469 44.1169 25.4042 44.4386 25.3131C44.4779 25.3053 44.5171 25.2976 44.5564 25.2898C44.5956 25.282 44.6335 25.2677 44.6702 25.2468C44.626 25.0245 44.6016 24.7642 44.5968 24.4661C44.5894 24.155 44.5688 23.9484 44.5349 23.8463C44.5093 23.5116 44.477 23.2461 44.438 23.0499C44.3965 22.8407 44.3576 22.6445 44.3212 22.4614C44.298 22.2757 44.2709 22.0364 44.2399 21.7435C44.2036 21.5604 44.1358 21.3904 44.0367 21.2333C43.9376 21.0763 43.8174 20.9846 43.6762 20.9582C43.543 20.9031 43.407 20.8689 43.2685 20.8557C43.1404 20.8267 43.0096 20.8187 42.8763 20.8315C42.7534 20.8288 42.62 20.8416 42.4761 20.8702C42.403 20.8439 42.2996 20.8712 42.1662 20.9521C42.0301 21.0199 41.8822 21.1308 41.7224 21.2849C41.5627 21.4389 41.4016 21.6204 41.2392 21.8293C41.2287 21.845 41.213 21.8685 41.192 21.8999C41.1711 21.9312 41.1501 21.9626 41.1291 21.9939C41.0793 22.0854 41.0308 22.1834 40.9836 22.2879C40.9338 22.3793 40.8839 22.4708 40.8341 22.5622C40.6769 22.7973 40.4754 22.9121 40.2296 22.9065C39.9969 22.8983 39.8232 22.7765 39.7085 22.541C39.7033 22.5148 39.655 22.4428 39.5636 22.325C39.4854 22.2046 39.4215 22.0542 39.3721 21.8737C39.3332 21.6775 39.3753 21.4788 39.4985 21.2777C39.6637 20.9458 39.8603 20.6349 40.0882 20.345C40.3292 20.0525 40.6002 19.7744 40.9013 19.5108C40.9746 19.469 41.0427 19.4351 41.1055 19.4091C41.1787 19.3673 41.2533 19.3322 41.3292 19.3035C41.358 19.2434 41.4091 19.1925 41.4824 19.1508C41.5557 19.109 41.6381 19.0791 41.7296 19.0609C42.0043 19.0064 42.3442 19.0069 42.7494 19.0624C43.1546 19.1179 43.5611 19.2139 43.9688 19.3505C44.3766 19.4871 44.7084 19.6523 44.9644 19.8462ZM49.484 31.224C49.2148 31.1687 48.9809 31.052 48.7825 30.8739C48.5945 30.6801 48.4693 30.4263 48.407 30.1124C48.3811 29.9816 48.3631 29.7541 48.3531 29.4298C48.3431 29.1056 48.345 28.7382 48.3587 28.3277C48.3723 27.9171 48.3912 27.5328 48.4152 27.1746C48.4993 26.9132 48.5376 26.6609 48.5301 26.4177C48.5357 26.1719 48.5333 26.0229 48.5229 25.9706C48.5179 25.8084 48.5222 25.5901 48.5356 25.3156C48.5491 25.041 48.5678 24.7926 48.5916 24.5704C48.626 24.3325 48.6536 24.1979 48.6746 24.1665C48.727 24.0882 48.8304 24.0269 48.9847 23.9826C49.1391 23.9384 49.2999 23.9269 49.4672 23.948C49.632 23.9561 49.7535 24.0204 49.8317 24.1408C50.0067 24.2691 50.1319 24.489 50.2073 24.8003C50.2958 25.1089 50.3096 25.4868 50.2488 25.9339C50.183 26.2188 50.1263 26.5495 50.0787 26.926C50.0311 27.3025 49.9913 27.6502 49.9595 27.9691C49.9381 28.2724 49.9313 28.4777 49.939 28.5849L49.2289 28.7055C49.4097 28.4521 49.5761 28.1948 49.7281 27.9335C49.8776 27.6592 49.9851 27.4475 50.0507 27.2986C50.2133 26.9536 50.3536 26.6675 50.4716 26.4402C50.6001 26.1972 50.7666 25.9059 50.971 25.5662C51.1729 25.2135 51.4125 24.9485 51.69 24.7711C51.9648 24.5806 52.1742 24.471 52.318 24.4425C52.6161 24.4377 52.901 24.5375 53.1727 24.7418C53.4548 24.9305 53.6687 25.2551 53.8145 25.7155C53.8508 25.8986 53.8741 26.1183 53.8841 26.3746C53.9073 26.6282 53.9189 26.7551 53.9189 26.7551C53.9189 26.7551 53.9976 26.6035 54.1549 26.3004C54.3253 25.9947 54.5612 25.6421 54.8625 25.2424C55.0746 25.01 55.2958 24.8574 55.526 24.7845C55.7536 24.6985 55.9784 24.7355 56.2005 24.8953C56.5769 25.0109 56.8889 25.282 57.1367 25.7086C57.3845 26.1352 57.5394 26.6414 57.6013 27.2272C57.6295 27.575 57.684 27.8497 57.7648 28.0512C57.856 28.2369 57.9434 28.4031 58.0269 28.5497C58.2436 28.7513 58.3113 28.9554 58.2299 29.1619C58.146 29.3552 58.0582 29.461 57.9667 29.4792C57.8359 29.5051 57.6345 29.5179 57.3626 29.5175C57.0906 29.5171 56.8305 29.4736 56.5822 29.3869C56.347 29.2977 56.2073 29.1419 56.1632 28.9196L55.9218 27.7033C55.8647 27.4156 55.8101 27.2089 55.758 27.0833C55.7163 26.9421 55.6655 26.857 55.6054 26.8282C55.4459 26.7782 55.2811 26.8721 55.1108 27.1098C54.9404 27.3475 54.7674 27.6742 54.5916 28.0897C54.4263 28.4895 54.2504 28.939 54.064 29.4382C53.896 29.8929 53.7426 30.1816 53.6038 30.3043C53.4625 30.414 53.3108 30.4373 53.1487 30.3743C52.8429 30.3398 52.6351 30.2519 52.5255 30.1106C52.4263 29.9535 52.3822 29.7652 52.3929 29.5456C52.4142 29.3102 52.4356 29.0069 52.457 28.6357C52.4916 28.2618 52.5222 27.9023 52.5488 27.5572C52.5729 27.199 52.5824 26.9388 52.5774 26.7767C52.5043 26.6824 52.4063 26.6679 52.2833 26.7331C52.1708 26.7826 52.0582 26.8661 51.9456 26.9836C51.8094 27.1194 51.6615 27.2643 51.5018 27.4183C51.3551 27.5698 51.2017 27.8585 51.0416 28.2845C50.934 28.5641 50.8119 28.8738 50.6755 29.2136C50.5364 29.5402 50.4052 29.8381 50.2819 30.1073C50.1717 30.3738 50.0734 30.5633 49.9869 30.6756C49.9421 30.9292 49.8869 31.0964 49.8214 31.1774C49.7533 31.2453 49.6409 31.2608 49.484 31.224ZM60.9554 29.4773C60.7853 29.511 60.6415 29.5056 60.5239 29.461C60.4194 29.4138 60.2835 29.3456 60.1163 29.2564C59.8159 29.0442 59.5574 28.8032 59.3407 28.5336C59.1372 28.2613 59.033 28.0101 59.0281 27.78C59.0465 27.6676 59.0401 27.5669 59.0089 27.478C58.9881 27.3734 58.9777 27.321 58.9777 27.321C58.8994 27.2686 58.872 27.2333 58.8955 27.215C58.9165 27.1837 58.9349 27.1392 58.9506 27.0817C59.0291 27.0662 59.041 26.989 58.9863 26.8504C58.9393 26.7509 58.9345 26.5208 58.9716 26.16C59.0192 25.7836 59.11 25.4189 59.2438 25.0661C59.2963 24.9197 59.3803 24.7264 59.4957 24.486C59.6085 24.2325 59.7357 23.9829 59.8773 23.7374C60.0293 23.4761 60.1708 23.2645 60.3018 23.1026C60.5743 22.763 60.8309 22.481 61.0718 22.2565C61.3258 22.0293 61.5902 21.8545 61.8649 21.732C62.1396 21.6095 62.4274 21.5184 62.7282 21.4587C63.0421 21.3964 63.3179 21.4504 63.5556 21.6208C63.8823 21.6918 64.1266 21.8269 64.2885 22.0258C64.4634 22.2222 64.6055 22.493 64.7148 22.8384C64.8319 23.2229 64.8887 23.7146 64.8852 24.3134C64.8792 24.8991 64.6885 25.6166 64.3134 26.4659C64.0798 27.0016 63.8321 27.4314 63.5701 27.7553C63.3082 28.0792 63.0096 28.3899 62.6745 28.6875C62.4362 28.9251 62.164 29.0947 61.8579 29.1962C61.5518 29.2977 61.251 29.3914 60.9554 29.4773ZM62.4813 26.6868C62.7197 26.3812 62.8679 26.0664 62.9259 25.7422C62.997 25.4154 63.0642 25.0351 63.1276 24.6011C63.1644 24.5122 63.1711 24.375 63.1478 24.1893C63.1376 24.001 63.1091 23.8231 63.0623 23.6557C63.0129 23.4752 62.9464 23.3797 62.8627 23.3691C62.7268 23.3009 62.6052 23.3047 62.4979 23.3803C62.388 23.4429 62.2545 23.5578 62.0973 23.7249C61.7699 24.1297 61.479 24.5817 61.2246 25.0808C60.9807 25.5642 60.8544 26.1262 60.8456 26.7668C60.8712 27.1015 60.9533 27.3435 61.0916 27.4928C61.2405 27.6264 61.4327 27.6358 61.6682 27.5211C61.9142 27.3907 62.1852 27.1126 62.4813 26.6868ZM72.2054 27.4483C72.0956 27.4429 71.9388 27.3721 71.7351 27.2358C71.5287 27.0864 71.3315 26.9149 71.1436 26.7211C70.9686 26.5247 70.8669 26.3546 70.8384 26.2107C70.8752 26.0539 70.9109 25.7886 70.9454 25.4147C70.9774 25.0277 71.0251 24.5833 71.0886 24.0813C71.1647 23.9167 71.2094 23.7311 71.2228 23.5245C71.2492 23.3154 71.273 23.1271 71.2942 22.9598C71.3573 22.7298 71.4218 22.4383 71.4877 22.0854C71.564 21.7168 71.6404 21.3482 71.7168 20.9796C71.7905 20.598 71.8564 20.2791 71.9143 20.0229C71.9563 19.8922 71.9983 19.7615 72.0404 19.6308C72.0824 19.5002 72.1179 19.3708 72.1468 19.2427C72.1339 19.1773 72.1549 19.112 72.2099 19.0467C72.2623 18.9683 72.3382 18.9056 72.4377 18.8587C72.4979 18.8196 72.5659 18.7857 72.6418 18.757C72.7307 18.7258 72.821 18.7011 72.9125 18.6829C73.0956 18.6466 73.2824 18.7318 73.473 18.9387C73.6741 19.1299 73.7928 19.317 73.8291 19.5001C73.8837 19.7747 73.8833 20.0127 73.8281 20.214C73.7834 20.3996 73.7217 20.5681 73.643 20.7197C73.5617 20.8581 73.4883 21.0018 73.4227 21.1508C73.3702 21.2972 73.3647 21.475 73.4063 21.6842C73.4166 21.7365 73.4637 21.734 73.5475 21.6766C73.6286 21.6061 73.7216 21.5265 73.8263 21.4377C73.9206 21.3646 74.0502 21.2302 74.2152 21.0343C74.3933 20.8358 74.578 20.6361 74.7691 20.435C74.9577 20.2208 75.12 20.0799 75.2561 20.0121C75.5049 19.7588 75.7052 19.5695 75.8571 19.4442C76.0063 19.3059 76.1202 19.2289 76.1986 19.2133C76.3425 19.1848 76.5111 19.2465 76.7044 19.3984C76.895 19.5373 77.006 19.6852 77.0371 19.8421C77.0631 19.9729 77.0367 20.1141 76.958 20.2656C76.8899 20.4015 76.785 20.5582 76.6436 20.7358C76.4131 21.0127 76.1368 21.2986 75.8147 21.5936C75.49 21.8755 75.1929 22.1248 74.9232 22.3415C74.6641 22.5424 74.5148 22.6808 74.4755 22.7566C74.4781 22.7697 74.5394 22.839 74.6595 22.9647C74.7901 23.0747 74.9311 23.2031 75.0826 23.3497C75.1896 23.478 75.2901 23.6076 75.384 23.7385C75.4885 23.8537 75.5785 23.965 75.6542 24.0723C75.8943 24.3916 76.0927 24.6377 76.2493 24.8105C76.4164 24.9677 76.5889 25.049 76.7667 25.0545C76.9419 25.0469 77.1839 24.9649 77.4927 24.8084C77.7256 24.6807 77.9243 24.6888 78.0888 24.8328C78.2664 24.9743 78.3695 25.117 78.3981 25.2608C78.4111 25.3262 78.3861 25.4059 78.3232 25.5C78.2734 25.5914 78.2053 25.6933 78.1188 25.8056C77.9433 26.0172 77.7247 26.2169 77.4629 26.4048C77.2168 26.6032 77.0218 26.7166 76.878 26.7452C76.7341 26.7737 76.5694 26.7656 76.3838 26.7209C76.1982 26.6762 75.9487 26.549 75.6352 26.3394C75.3217 26.1297 74.8934 25.7865 74.3502 25.3098C74.3398 25.2575 74.2902 25.179 74.2015 25.0743C74.1101 24.9565 74.0188 24.8387 73.9274 24.7209C73.8543 24.6266 73.7851 24.552 73.7199 24.497C73.665 24.4263 73.6298 24.3857 73.6141 24.3752C73.6271 24.4406 73.6114 24.4301 73.5671 24.3438C73.5359 24.2548 73.4837 24.1632 73.4106 24.069C73.3349 23.9617 73.2448 23.9184 73.1402 23.9392C73.0879 23.9495 73.0328 24.0488 72.975 24.237C72.9146 24.4121 72.8554 24.6278 72.7975 24.8839C72.7633 25.0539 72.7317 25.2369 72.7026 25.4329C72.6736 25.629 72.6576 25.8225 72.6547 26.0134C72.6623 26.1886 72.6816 26.3546 72.7128 26.5116C72.7517 26.7078 72.7292 26.9025 72.6453 27.0959C72.5744 27.2867 72.4278 27.4042 72.2054 27.4483ZM80.072 30.7806C79.9727 30.7595 79.8094 30.69 79.5821 30.572C79.3678 30.4514 79.1641 30.3151 78.9708 30.1631C78.7932 30.0217 78.6966 29.9117 78.681 29.8332C78.6654 29.7548 78.6566 29.539 78.6545 29.186C78.655 28.8461 78.6595 28.4238 78.6681 27.9191C78.6924 27.4249 78.7206 26.9164 78.7527 26.3935C78.8005 25.881 78.8587 25.4209 78.9273 25.0131C78.9405 24.9425 78.9827 24.7098 79.0538 24.3151C79.1355 23.9047 79.1951 23.4171 79.2325 22.8523C79.2696 22.4915 79.3304 22.0784 79.4147 21.6131C79.4991 21.1478 79.59 20.6812 79.6874 20.2132C79.7823 19.7322 79.8548 19.31 79.905 18.9466C79.9552 18.5833 80.0185 18.2173 80.0949 17.8487C80.1686 17.467 80.2069 17.2487 80.2096 17.1938C80.2202 17.1102 80.2791 17.0305 80.3864 16.9548C80.5042 16.8635 80.6246 16.7852 80.7476 16.72C80.868 16.6417 80.9465 16.5922 80.9832 16.5713C81.2056 16.4592 81.4278 16.517 81.6497 16.7448C81.7385 16.8496 81.784 17.0105 81.7863 17.2275C81.7991 17.4289 81.7765 17.6576 81.7186 17.9138L81.6592 18.3334L82.3342 18.0363C82.4519 18.0129 82.6167 17.987 82.8286 17.9586C83.0404 17.9301 83.2457 17.903 83.4445 17.8771C83.6563 17.8486 83.8041 17.8397 83.8878 17.8503C84.2042 17.8011 84.4317 17.8171 84.5702 17.8984C84.7217 17.977 84.8601 18.0923 84.9854 18.2441C85.0638 18.2965 85.1604 18.3725 85.2754 18.4721C85.3877 18.5585 85.4607 18.6528 85.4946 18.7548C85.591 18.9667 85.6233 19.2322 85.5915 19.5512C85.5727 19.8675 85.5095 20.1995 85.4018 20.5471C85.3045 20.8791 85.1707 21.1979 85.0003 21.5036C84.8403 21.7936 84.6753 22.0235 84.5051 22.1932C84.3847 22.2715 84.2786 22.3537 84.187 22.4399C84.0927 22.5129 84.0456 22.5495 84.0456 22.5495C84.0455 22.6175 83.9303 22.7559 83.6999 22.9647C83.4825 23.171 83.2181 23.3798 82.9066 23.5911C82.6056 23.7868 82.3282 23.9302 82.0745 24.0214C81.9855 24.0526 81.8573 24.0917 81.6899 24.1385C81.5225 24.1853 81.3878 24.1917 81.2859 24.1575C81.1368 24.1599 81.0361 24.1663 80.9838 24.1767C80.9315 24.1871 80.9106 24.2184 80.9209 24.2707C80.9131 24.2995 80.863 24.5269 80.7709 24.953C80.6787 25.3791 80.6099 25.9569 80.5644 26.6864C80.4665 27.4942 80.3871 28.1557 80.3262 28.6707C80.2679 29.1988 80.2202 29.6093 80.1832 29.9021C80.1592 30.1923 80.1393 30.4002 80.1234 30.5257C80.1101 30.6642 80.093 30.7492 80.072 30.7806ZM81.0491 22.451C81.1039 22.5216 81.2464 22.5205 81.4767 22.4477C81.7043 22.3617 81.9568 22.23 82.2342 22.0526C82.5117 21.8752 82.7525 21.6847 82.9568 21.481C83.1715 21.2617 83.2803 21.0566 83.2832 20.8657C83.5061 20.4816 83.662 20.206 83.7512 20.0388C83.8378 19.8585 83.8066 19.7355 83.6576 19.6699C83.4722 19.4892 83.2435 19.4327 82.9714 19.5003C82.7125 19.5652 82.3264 19.8118 81.8133 20.2399C81.6065 20.3625 81.4704 20.4643 81.4049 20.5452C81.3368 20.6131 81.2883 20.7111 81.2594 20.8392C81.2435 20.9647 81.2026 21.1699 81.1369 21.4548C81.0763 21.7659 81.0406 21.9973 81.0299 22.1489C81.0193 22.3006 81.0257 22.4012 81.0491 22.451ZM88.5792 29.3775C88.3018 29.4869 88.107 29.5324 87.9945 29.5139C87.8821 29.4955 87.7253 29.4586 87.524 29.4034C87.3594 29.3274 87.2392 29.2697 87.1634 29.2303C87.0877 29.191 87.0315 29.1478 86.995 29.1006C86.8097 28.852 86.7498 28.6531 86.8154 28.5042C86.881 28.3552 86.9949 28.2443 87.1571 28.1713C87.335 28.1088 87.4894 28.0646 87.6202 28.0386C87.7221 28.0727 87.8777 28.0691 88.0869 28.0275C88.3093 27.9834 88.4414 27.93 88.4833 27.8673C88.4833 27.8673 88.5344 27.8164 88.6365 27.7145C88.7543 27.6232 88.9139 27.5371 89.1154 27.4564C89.4819 27.1797 89.7621 26.9134 89.956 26.6574C90.1524 26.4145 90.3465 26.0226 90.5382 25.4816C90.6195 25.2751 90.701 25.0347 90.7824 24.7602C90.8665 24.4989 90.9113 24.2453 90.9169 23.9995C90.9696 23.7172 91.0172 23.3407 91.0597 22.8701C91.1154 22.3969 91.1526 21.9341 91.1716 21.4817C91.188 21.0163 91.1806 20.6711 91.1496 20.4462C91.0827 19.6983 91.0929 18.9622 91.1803 18.238C91.265 17.5007 91.2962 16.7333 91.2738 15.9357C91.316 15.7371 91.3541 15.6207 91.3881 15.5868C91.4196 15.5398 91.5007 15.5033 91.6315 15.4773C91.7753 15.4488 91.9544 15.4608 92.1688 15.5134C92.3805 15.553 92.5464 15.6356 92.6665 15.7613C92.8466 15.9838 92.9639 16.2664 93.0183 16.609C93.0832 16.9359 93.0553 17.2405 92.9346 17.5228C92.8402 17.7318 92.7796 18.0429 92.7528 18.456C92.7365 18.8535 92.7397 19.349 92.7624 19.9426C92.7541 20.2433 92.7497 20.5976 92.7491 21.0055C92.759 21.3978 92.7714 21.8371 92.7864 22.3235C92.76 22.4646 92.7283 22.6816 92.6913 22.9744C92.6517 23.2542 92.6343 23.4751 92.6393 23.6372C92.6366 23.6922 92.6182 23.8046 92.5839 23.9745C92.5497 24.1444 92.5141 24.3078 92.4773 24.4646C92.4431 24.6345 92.4181 24.7482 92.4023 24.8058C92.0263 26.1989 91.4822 27.2585 90.7699 27.9844C90.0706 28.7077 89.3404 29.1721 88.5792 29.3775ZM89.1251 23.4987C88.9813 23.5273 88.8153 23.4787 88.6272 23.3529C88.4522 23.2245 88.3294 23.1197 88.259 23.0386C88.1807 22.9182 88.0579 22.8134 87.8907 22.7242C87.7235 22.6351 87.5707 22.5159 87.4323 22.3666C87.294 22.2174 87.2263 22.0133 87.2293 21.7545C87.2478 21.5741 87.2757 21.3035 87.3128 20.9427C87.3474 20.5688 87.395 20.1583 87.4558 19.7113C87.514 19.2511 87.5735 18.7975 87.6343 18.3505C87.7082 17.9008 87.7781 17.4995 87.844 17.1466C87.9099 16.7937 87.9756 16.5428 88.0412 16.3938C88.0989 16.2736 88.2076 16.1705 88.3672 16.0844C88.5268 15.9984 88.6942 15.9516 88.8694 15.944C89.0447 15.9364 89.1845 15.9902 89.2889 16.1054C89.4691 16.2599 89.5839 16.4275 89.6333 16.608C89.6932 16.7728 89.6562 17.0656 89.5222 17.4864C89.4985 17.6406 89.4642 17.8106 89.4195 17.9962C89.3722 18.1687 89.3537 18.2811 89.3641 18.3334C89.3562 18.3621 89.3482 18.4589 89.3401 18.6236C89.3425 18.7727 89.3371 18.9165 89.3238 19.055C89.3105 19.1936 89.2843 19.2668 89.245 19.2746C89.2031 19.3373 89.1715 19.4863 89.1503 19.7216C89.1421 19.9543 89.1391 20.2132 89.1413 20.4982C89.154 20.7675 89.1745 21.0081 89.203 21.22C89.2288 21.4188 89.2679 21.513 89.3202 21.5026C89.7257 21.4221 90.0933 21.22 90.4233 20.8962C90.7506 20.5594 91.077 20.046 91.4022 19.3562L91.9448 21.1652C91.7798 21.2931 91.6293 21.4249 91.4931 21.5607C91.3544 21.6834 91.2326 21.8231 91.1277 21.9798C91.0989 22.0399 91.0216 22.13 90.8959 22.2501C90.7702 22.3702 90.6432 22.4838 90.515 22.5908C90.3972 22.6822 90.3186 22.7317 90.2794 22.7395C90.2794 22.7395 90.2611 22.7499 90.2244 22.7708C90.1983 22.776 90.1904 22.8047 90.2008 22.8571C90.206 22.8832 90.1313 22.9524 89.9769 23.0646C89.8199 23.1638 89.655 23.2576 89.4823 23.3463C89.3096 23.435 89.1905 23.4858 89.1251 23.4987ZM96.1327 21.9652C95.8634 21.9099 95.6296 21.7931 95.4311 21.615C95.2431 21.4213 95.118 21.1674 95.0557 20.8536C95.0297 20.7228 95.0117 20.4953 95.0017 20.171C94.9918 19.8467 94.9936 19.4794 95.0073 19.0688C95.021 18.6583 95.0398 18.274 95.0639 17.9158C95.1479 17.6544 95.1862 17.4021 95.1787 17.1589C95.1843 16.9131 95.1819 16.7641 95.1715 16.7118C95.1665 16.5496 95.1708 16.3313 95.1843 16.0567C95.1977 15.7822 95.2164 15.5338 95.2403 15.3116C95.2746 15.0737 95.3023 14.9391 95.3232 14.9077C95.3756 14.8293 95.479 14.768 95.6334 14.7238C95.7877 14.6796 95.9485 14.6681 96.1159 14.6892C96.2806 14.6973 96.4021 14.7615 96.4803 14.8819C96.6554 15.0103 96.7805 15.2302 96.8559 15.5414C96.9444 15.8501 96.9582 16.228 96.8974 16.6751C96.8316 16.96 96.7749 17.2907 96.7273 17.6672C96.6797 18.0436 96.64 18.3914 96.6081 18.7103C96.5867 19.0136 96.5799 19.2189 96.5876 19.3261L95.8775 19.4467C96.0583 19.1933 96.2247 18.936 96.3767 18.6747C96.5262 18.4003 96.6337 18.1887 96.6993 18.0397C96.8619 17.6948 97.0022 17.4087 97.1202 17.1814C97.2487 16.9384 97.4152 16.6471 97.6197 16.3074C97.8215 15.9547 98.0612 15.6896 98.3386 15.5122C98.6135 15.3218 98.8228 15.2122 98.9667 15.1837C99.2648 15.1789 99.5496 15.2787 99.8213 15.483C100.103 15.6717 100.317 15.9963 100.463 16.4567C100.499 16.6398 100.523 16.8595 100.533 17.1158C100.556 17.3694 100.568 17.4963 100.568 17.4963C100.568 17.4963 100.646 17.3447 100.804 17.0416C100.974 16.7359 101.21 16.3833 101.511 15.9836C101.723 15.7512 101.944 15.5986 102.175 15.5257C102.402 15.4397 102.627 15.4767 102.849 15.6365C103.225 15.7521 103.538 16.0232 103.785 16.4498C104.033 16.8764 104.188 17.3826 104.25 17.9684C104.278 18.3162 104.333 18.5909 104.413 18.7923C104.505 18.9781 104.592 19.1443 104.675 19.2909C104.892 19.4925 104.96 19.6966 104.879 19.903C104.795 20.0964 104.707 20.2022 104.615 20.2204C104.485 20.2463 104.283 20.2591 104.011 20.2587C103.739 20.2583 103.479 20.2148 103.231 20.1281C102.996 20.0389 102.856 19.8831 102.812 19.6608L102.57 18.4445C102.513 18.1568 102.459 17.9501 102.407 17.8245C102.365 17.6832 102.314 17.5982 102.254 17.5693C102.095 17.5194 101.93 17.6133 101.759 17.851C101.589 18.0887 101.416 18.4153 101.24 18.8308C101.075 19.2307 100.899 19.6802 100.713 20.1794C100.545 20.6341 100.391 20.9228 100.252 21.0455C100.111 21.1551 99.9594 21.1784 99.7974 21.1155C99.4915 21.081 99.2837 20.9931 99.1741 20.8517C99.075 20.6947 99.0308 20.5064 99.0416 20.2867C99.0628 20.0514 99.0842 19.7481 99.1057 19.3768C99.1402 19.003 99.1708 18.6435 99.1974 18.2983C99.2215 17.9401 99.231 17.68 99.226 17.5178C99.153 17.4236 99.0549 17.4091 98.9319 17.4743C98.8194 17.5238 98.7069 17.6073 98.5942 17.7248C98.4581 17.8606 98.3101 18.0055 98.1504 18.1595C98.0037 18.311 97.8503 18.5997 97.6902 19.0257C97.5826 19.3053 97.4605 19.615 97.3241 19.9547C97.185 20.2814 97.0538 20.5793 96.9305 20.8485C96.8203 21.115 96.722 21.3045 96.6355 21.4168C96.5907 21.6703 96.5356 21.8376 96.4701 21.9186C96.402 21.9865 96.2895 22.002 96.1327 21.9652ZM108.186 20.4293C108.018 20.4761 107.877 20.4838 107.762 20.4522C107.649 20.4337 107.506 20.3943 107.331 20.3339C106.999 20.1687 106.702 19.9421 106.441 19.654C106.193 19.3634 106.054 19.1057 106.023 18.8807C106.025 18.7578 106.005 18.6532 105.96 18.5669C105.929 18.4779 105.913 18.4334 105.913 18.4334C105.822 18.3836 105.788 18.3496 105.812 18.3313C105.833 18.3 105.844 18.2568 105.847 18.2019C105.947 18.155 105.945 18.0805 105.844 17.9783C105.784 17.8815 105.756 17.6422 105.762 17.2604C105.779 16.863 105.826 16.4865 105.905 16.131C105.942 15.9742 105.996 15.7664 106.067 15.5076C106.151 15.2462 106.248 14.9823 106.358 14.7157C106.466 14.4361 106.571 14.2114 106.673 14.0415C106.896 13.6575 107.098 13.3388 107.278 13.0854C107.472 12.8294 107.703 12.6205 107.97 12.4588C108.21 12.3023 108.463 12.2046 108.727 12.1657C109.004 12.1243 109.264 12.1678 109.507 12.2963C109.84 12.3256 110.149 12.4136 110.437 12.5605C110.722 12.6943 110.943 12.9221 111.102 13.2439C111.282 13.6024 111.405 14.0471 111.469 14.5781C111.544 15.0933 111.453 15.7979 111.195 16.6918C111.048 17.2512 110.882 17.7124 110.695 18.0756C110.522 18.4362 110.294 18.7942 110.011 19.1494C109.804 19.4079 109.52 19.6546 109.159 19.8894C108.798 20.1242 108.473 20.3042 108.186 20.4293ZM109.304 17.1283C109.428 16.8592 109.513 16.6044 109.56 16.3639C109.621 16.1208 109.658 15.7939 109.672 15.3834C109.682 15.2318 109.667 15.0513 109.625 14.8421C109.597 14.6302 109.553 14.4419 109.493 14.2771C109.443 14.0966 109.378 14.0076 109.297 14.0101C109.114 13.9784 108.938 14.0135 108.767 14.1152C108.608 14.2013 108.436 14.3984 108.253 14.7067C108.09 14.9837 107.964 15.2397 107.875 15.4749C107.796 15.6945 107.733 15.9585 107.686 16.267C107.649 16.5598 107.615 16.9402 107.586 17.4082C107.567 17.8606 107.629 18.2084 107.773 18.4518C107.929 18.6926 108.14 18.7256 108.404 18.5508C108.668 18.376 108.968 17.9018 109.304 17.1283ZM115.065 15.5976C114.712 15.7356 114.394 15.6424 114.112 15.3177C113.828 14.98 113.71 14.3169 113.758 13.3286C113.805 13.156 113.841 12.9927 113.865 12.8384C113.886 12.6711 113.887 12.5417 113.869 12.4501C113.888 12.2697 113.914 12.0606 113.949 11.8227C113.993 11.5691 114.042 11.3351 114.095 11.1208C114.145 10.8934 114.183 10.7431 114.209 10.6699C114.261 10.6595 114.305 10.6033 114.339 10.5014C114.386 10.3969 114.401 10.2988 114.382 10.2073C114.362 10.1027 114.358 9.98108 114.371 9.84251C114.397 9.70134 114.432 9.59941 114.474 9.53672C114.461 9.47133 114.472 9.3942 114.509 9.30535C114.546 9.2165 114.559 9.14592 114.549 9.0936C114.538 9.04129 114.542 8.99292 114.561 8.9485C114.592 8.90147 114.603 8.85181 114.592 8.79949C114.668 8.56688 114.758 8.22969 114.86 7.78793C114.974 7.33049 115.076 6.85473 115.169 6.36065C115.274 5.86397 115.357 5.4261 115.418 5.04703C115.478 4.66796 115.501 4.43919 115.485 4.36072C115.491 4.25091 115.51 4.14503 115.545 4.0431C115.579 3.94117 115.651 3.8929 115.76 3.89829C115.805 3.84867 115.88 3.81348 115.984 3.79272C116.086 3.75887 116.163 3.73676 116.216 3.72637C116.216 3.72637 116.28 3.74085 116.408 3.7698C116.536 3.79875 116.656 3.85646 116.768 3.94291C116.891 4.01369 116.975 4.12625 117.019 4.2806C117.063 4.43494 117.101 4.59058 117.132 4.74752C117.168 4.9986 117.133 5.29795 117.025 5.64558C116.917 5.9932 116.796 6.37741 116.662 6.79821C116.581 7.07265 116.497 7.33402 116.41 7.58231C116.337 7.828 116.305 7.977 116.315 8.02931C116.326 8.08163 116.315 8.16529 116.284 8.2803C116.252 8.39531 116.219 8.53777 116.185 8.70769C116.132 8.85404 116.085 9.02656 116.043 9.22523C116.014 9.4213 115.989 9.603 115.968 9.77032C115.944 9.92456 115.936 10.0213 115.944 10.0605C115.941 10.1154 115.932 10.1717 115.916 10.2292C115.913 10.2841 115.891 10.3429 115.849 10.4056C115.797 10.4159 115.772 10.4617 115.774 10.5427C115.787 10.6081 115.794 10.6408 115.794 10.6408C115.804 10.6931 115.796 10.8239 115.77 11.033C115.754 11.2265 115.706 11.467 115.627 11.7545C115.516 12.497 115.45 13.0879 115.429 13.5271C115.405 13.9533 115.408 14.3129 115.439 14.6058C115.475 14.9248 115.446 15.1549 115.352 15.296C115.255 15.424 115.159 15.5245 115.065 15.5976ZM114.629 18.8446C114.375 19.0038 114.155 19.095 113.969 19.1182C113.786 19.1546 113.567 19.1098 113.31 18.9839C112.997 18.7743 112.854 18.5309 112.88 18.2537C112.917 17.9609 113.101 17.6526 113.431 17.3289C113.658 17.1069 113.831 16.9843 113.949 16.9609C114.077 16.9219 114.276 16.93 114.545 16.9853C115.044 17.1717 115.301 17.4401 115.317 17.7905C115.329 18.1279 115.1 18.4792 114.629 18.8446Z" fill="black"/>
<path d="M3.69629 6.60303C3.69629 12.3598 5.13408 17.0133 8.93822 21.2854C13.8607 26.8134 21.5002 27.603 28.6963 27.603" stroke="black" stroke-width="1.5" stroke-linecap="round"/>
<path d="M1.19629 18.603C0.696226 14.103 1.19598 12.1031 2.19598 9.10306C2.36265 8.60303 3.69598 5.49596 3.69598 7.02439" stroke="black" stroke-width="1.5" stroke-linecap="round"/>
<path d="M8.69629 11.603C8.14073 11.0767 7.46883 10.177 7.02962 9.76092C6.19629 8.97145 5.64073 8.44513 5.08518 7.91882C4.52962 7.3925 4.52962 7.3925 3.69629 6.60303" stroke="black" stroke-width="1.5" stroke-linecap="round"/>
</svg>
