<svg width="31" height="31" viewBox="0 0 31 31" fill="none" xmlns="http://www.w3.org/2000/svg">
<g clip-path="url(#clip0_513_360)">
<path fill-rule="evenodd" clip-rule="evenodd" d="M15.5 0.0644531C23.7843 0.0644531 30.5 6.78018 30.5 15.0645C30.5 23.3487 23.7843 30.0645 15.5 30.0645C7.21572 30.0645 0.5 23.3487 0.5 15.0645C0.5 6.78018 7.21572 0.0644531 15.5 0.0644531Z" fill="#5865F2"/>
<path d="M21.6484 9.47587C20.4842 8.94341 19.2553 8.56555 17.9931 8.35192C17.8211 8.66086 17.6653 8.97854 17.5263 9.30366C16.8549 9.2024 16.1769 9.15144 15.4979 9.1512C14.82 9.1512 14.1388 9.20271 13.4692 9.30237C13.3325 8.97958 13.1737 8.65948 13.0013 8.35181C11.739 8.56746 10.51 8.94605 9.34522 9.4781C7.03176 12.9004 6.40481 16.2373 6.71828 19.5267C8.07295 20.5273 9.58908 21.2883 11.2008 21.7766C11.5623 21.2887 11.8861 20.7692 12.1609 20.2287C11.6365 20.0333 11.1303 19.7917 10.6485 19.5069C10.7753 19.415 10.8993 19.3203 11.0191 19.2283C12.4202 19.8863 13.951 20.2295 15.4999 20.2295C17.0489 20.2295 18.5798 19.8863 19.9809 19.2282C20.1021 19.3271 20.2261 19.4219 20.3515 19.5068C19.8687 19.7922 19.3617 20.0344 18.8363 20.2306C19.1121 20.7723 19.4333 21.2897 19.7964 21.7772C21.4096 21.2904 22.927 20.5295 24.2819 19.5277L24.2816 19.5281C24.6494 15.7135 23.6532 12.4073 21.6484 9.47587ZM12.5574 17.5037C11.6839 17.5037 10.9621 16.711 10.9621 15.7357C10.9621 14.7604 11.6587 13.9607 12.5546 13.9607C13.4505 13.9607 14.1666 14.7604 14.1513 15.7357C14.136 16.711 13.4477 17.5037 12.5574 17.5037ZM18.4425 17.5037C17.5675 17.5037 16.8486 16.711 16.8486 15.7357C16.8486 14.7604 17.5452 13.9607 18.4425 13.9607C19.3397 13.9607 20.0503 14.7604 20.0349 15.7357C20.0197 16.711 19.3328 17.5037 18.4425 17.5037Z" fill="white"/>
</g>
<defs>
<clipPath id="clip0_513_360">
<rect x="0.5" y="0.0644531" width="30" height="30" rx="6" fill="white"/>
</clipPath>
</defs>
</svg>
