<svg width="143" height="70" viewBox="0 0 143 70" fill="none" xmlns="http://www.w3.org/2000/svg">
<path d="M44.9644 24.8462C45.1995 25.0034 45.4135 25.26 45.6065 25.6159C45.81 25.9561 45.9729 26.3316 46.0952 26.7423C46.2305 27.1504 46.3019 27.5441 46.3092 27.9232C46.3039 27.9651 46.3089 28.0932 46.3243 28.3077C46.3502 28.5064 46.3773 28.7457 46.4056 29.0256C46.4314 29.2923 46.448 29.5473 46.4555 29.7905C46.4735 30.018 46.4719 30.1814 46.4508 30.2808C46.495 30.5031 46.4803 30.7371 46.4067 30.9828C46.3462 31.2259 46.3249 31.4612 46.3429 31.6887C46.3086 31.8586 46.2679 32.0299 46.2205 32.2024C46.1863 32.3723 46.1468 32.55 46.1021 32.7356C46.0679 32.9056 46.0271 33.0768 45.9798 33.2493C45.9455 33.4192 45.9113 33.5891 45.877 33.759C45.7007 34.5145 45.4408 35.2593 45.0971 35.9936C44.7535 36.7279 44.3735 37.3471 43.9569 37.8511C43.6793 38.1645 43.3978 38.4243 43.1125 38.6304C42.8298 38.8497 42.5956 38.9709 42.4099 38.9942C42.2739 38.994 42.1405 39.0069 42.0097 39.0328C41.8816 39.0719 41.7468 39.1122 41.6056 39.1538C41.4774 39.1929 41.2747 39.1991 40.9976 39.1726C40.723 39.1591 40.4564 39.1169 40.1976 39.0459C39.9414 38.988 39.7598 38.9289 39.6527 38.8686C39.5586 38.8057 39.4659 38.7493 39.3744 38.6995C39.2804 38.6366 39.1863 38.5737 39.0923 38.5108C39.0113 38.4453 38.9251 38.3877 38.8337 38.3379C38.7396 38.275 38.6456 38.2121 38.5515 38.1492C38.4 38.0705 38.306 37.9736 38.2696 37.8585C38.2436 37.7277 38.2306 37.6623 38.2306 37.6623C38.1419 37.5576 38.1029 37.3954 38.1137 37.1758C38.1349 36.9405 38.2098 36.7353 38.3381 36.5603C38.4665 36.3853 38.6314 36.3254 38.8326 36.3806C39.1201 36.4595 39.3044 36.5317 39.3853 36.5972C39.4663 36.6626 39.542 36.736 39.6125 36.8171C39.6359 36.9348 39.7351 37.0579 39.9101 37.1863C40.0982 37.3121 40.2981 37.3947 40.5098 37.4343C40.5909 37.4318 40.672 37.4293 40.753 37.4268C40.8472 37.4217 40.9348 37.4179 41.0158 37.4154C41.0969 37.4129 41.178 37.4104 41.259 37.4079C41.5572 37.3351 41.8425 37.1629 42.1149 36.8914C42.3846 36.6068 42.623 36.3012 42.8301 35.9746C43.0476 35.6324 43.2036 35.3567 43.298 35.1477C43.3663 34.9438 43.4294 34.7478 43.4872 34.5596C43.558 34.3688 43.6224 34.1794 43.6802 33.9912C43.7485 33.7873 43.8115 33.5913 43.8693 33.4031C43.9402 33.2123 44.0045 33.0228 44.0623 32.8346C44.0939 32.7196 44.1189 32.6059 44.1374 32.4935C44.1689 32.3785 44.2005 32.2635 44.232 32.1485C44.0489 32.1848 43.8305 32.2486 43.5767 32.3397C43.3334 32.4152 43.0783 32.4998 42.8115 32.5935C42.5446 32.6873 42.2882 32.7654 42.0424 32.8278C41.8095 32.8876 41.599 32.9226 41.4107 32.9327C41.1833 32.8827 41.0004 32.7831 40.862 32.6338C40.7367 32.482 40.6089 32.2831 40.4785 32.0371C40.3612 31.7885 40.3419 31.5884 40.4205 31.4369C40.4966 31.2723 40.6184 31.1325 40.7859 31.0177L42.2572 30.7257C42.6026 30.6164 42.9687 30.5437 43.3558 30.5077C43.7559 30.469 44.1169 30.4042 44.4386 30.3131C44.4779 30.3053 44.5171 30.2976 44.5564 30.2898C44.5956 30.282 44.6335 30.2677 44.6702 30.2468C44.626 30.0245 44.6016 29.7642 44.5968 29.4661C44.5894 29.155 44.5688 28.9484 44.5349 28.8463C44.5093 28.5116 44.477 28.2461 44.438 28.0499C44.3965 27.8407 44.3576 27.6445 44.3212 27.4614C44.298 27.2757 44.2709 27.0364 44.2399 26.7435C44.2036 26.5604 44.1358 26.3904 44.0367 26.2333C43.9376 26.0763 43.8174 25.9846 43.6762 25.9582C43.543 25.9031 43.407 25.8689 43.2685 25.8557C43.1404 25.8267 43.0096 25.8187 42.8763 25.8315C42.7534 25.8288 42.62 25.8416 42.4761 25.8702C42.403 25.8439 42.2996 25.8712 42.1662 25.9521C42.0301 26.0199 41.8822 26.1308 41.7224 26.2849C41.5627 26.4389 41.4016 26.6204 41.2392 26.8293C41.2287 26.845 41.213 26.8685 41.192 26.8999C41.1711 26.9312 41.1501 26.9626 41.1291 26.9939C41.0793 27.0854 41.0308 27.1834 40.9836 27.2879C40.9338 27.3793 40.8839 27.4708 40.8341 27.5622C40.6769 27.7973 40.4754 27.9121 40.2296 27.9065C39.9969 27.8983 39.8232 27.7765 39.7085 27.541C39.7033 27.5148 39.655 27.4428 39.5636 27.325C39.4854 27.2046 39.4215 27.0542 39.3721 26.8737C39.3332 26.6775 39.3753 26.4788 39.4985 26.2777C39.6637 25.9458 39.8603 25.6349 40.0882 25.345C40.3292 25.0525 40.6002 24.7744 40.9013 24.5108C40.9746 24.469 41.0427 24.4351 41.1055 24.4091C41.1787 24.3673 41.2533 24.3322 41.3292 24.3035C41.358 24.2434 41.4091 24.1925 41.4824 24.1508C41.5557 24.109 41.6381 24.0791 41.7296 24.0609C42.0043 24.0064 42.3442 24.0069 42.7494 24.0624C43.1546 24.1179 43.5611 24.2139 43.9688 24.3505C44.3766 24.4871 44.7084 24.6523 44.9644 24.8462ZM49.484 36.224C49.2148 36.1687 48.9809 36.052 48.7825 35.8739C48.5945 35.6801 48.4693 35.4263 48.407 35.1124C48.3811 34.9816 48.3631 34.7541 48.3531 34.4298C48.3431 34.1056 48.345 33.7382 48.3587 33.3277C48.3723 32.9171 48.3912 32.5328 48.4152 32.1746C48.4993 31.9132 48.5376 31.6609 48.5301 31.4177C48.5357 31.1719 48.5333 31.0229 48.5229 30.9706C48.5179 30.8084 48.5222 30.5901 48.5356 30.3156C48.5491 30.041 48.5678 29.7926 48.5916 29.5704C48.626 29.3325 48.6536 29.1979 48.6746 29.1665C48.727 29.0882 48.8304 29.0269 48.9847 28.9826C49.1391 28.9384 49.2999 28.9269 49.4672 28.948C49.632 28.9561 49.7535 29.0204 49.8317 29.1408C50.0067 29.2691 50.1319 29.489 50.2073 29.8003C50.2958 30.1089 50.3096 30.4868 50.2488 30.9339C50.183 31.2188 50.1263 31.5495 50.0787 31.926C50.0311 32.3025 49.9913 32.6502 49.9595 32.9691C49.9381 33.2724 49.9313 33.4777 49.939 33.5849L49.2289 33.7055C49.4097 33.4521 49.5761 33.1948 49.7281 32.9335C49.8776 32.6592 49.9851 32.4475 50.0507 32.2986C50.2133 31.9536 50.3536 31.6675 50.4716 31.4402C50.6001 31.1972 50.7666 30.9059 50.971 30.5662C51.1729 30.2135 51.4125 29.9485 51.69 29.7711C51.9648 29.5806 52.1742 29.471 52.318 29.4425C52.6161 29.4377 52.901 29.5375 53.1727 29.7418C53.4548 29.9305 53.6687 30.2551 53.8145 30.7155C53.8508 30.8986 53.8741 31.1183 53.8841 31.3746C53.9073 31.6282 53.9189 31.7551 53.9189 31.7551C53.9189 31.7551 53.9976 31.6035 54.1549 31.3004C54.3253 30.9947 54.5612 30.6421 54.8625 30.2424C55.0746 30.01 55.2958 29.8574 55.526 29.7845C55.7536 29.6985 55.9784 29.7355 56.2005 29.8953C56.5769 30.0109 56.8889 30.282 57.1367 30.7086C57.3845 31.1352 57.5394 31.6414 57.6013 32.2272C57.6295 32.575 57.684 32.8497 57.7648 33.0512C57.856 33.2369 57.9434 33.4031 58.0269 33.5497C58.2436 33.7513 58.3113 33.9554 58.2299 34.1619C58.146 34.3552 58.0582 34.461 57.9667 34.4792C57.8359 34.5051 57.6345 34.5179 57.3626 34.5175C57.0906 34.5171 56.8305 34.4736 56.5822 34.3869C56.347 34.2977 56.2073 34.1419 56.1632 33.9196L55.9218 32.7033C55.8647 32.4156 55.8101 32.2089 55.758 32.0833C55.7163 31.9421 55.6655 31.857 55.6054 31.8282C55.4459 31.7782 55.2811 31.8721 55.1108 32.1098C54.9404 32.3475 54.7674 32.6742 54.5916 33.0897C54.4263 33.4895 54.2504 33.939 54.064 34.4382C53.896 34.8929 53.7426 35.1816 53.6038 35.3043C53.4625 35.414 53.3108 35.4373 53.1487 35.3743C52.8429 35.3398 52.6351 35.2519 52.5255 35.1106C52.4263 34.9535 52.3822 34.7652 52.3929 34.5456C52.4142 34.3102 52.4356 34.0069 52.457 33.6357C52.4916 33.2618 52.5222 32.9023 52.5488 32.5572C52.5729 32.199 52.5824 31.9388 52.5774 31.7767C52.5043 31.6824 52.4063 31.6679 52.2833 31.7331C52.1708 31.7826 52.0582 31.8661 51.9456 31.9836C51.8094 32.1194 51.6615 32.2643 51.5018 32.4183C51.3551 32.5698 51.2017 32.8585 51.0416 33.2845C50.934 33.5641 50.8119 33.8738 50.6755 34.2136C50.5364 34.5402 50.4052 34.8381 50.2819 35.1073C50.1717 35.3738 50.0734 35.5633 49.9869 35.6756C49.9421 35.9292 49.8869 36.0964 49.8214 36.1774C49.7533 36.2453 49.6409 36.2608 49.484 36.224ZM60.9554 34.4773C60.7853 34.511 60.6415 34.5056 60.5239 34.461C60.4194 34.4138 60.2835 34.3456 60.1163 34.2564C59.8159 34.0442 59.5574 33.8032 59.3407 33.5336C59.1372 33.2613 59.033 33.0101 59.0281 32.78C59.0465 32.6676 59.0401 32.5669 59.0089 32.478C58.9881 32.3734 58.9777 32.321 58.9777 32.321C58.8994 32.2686 58.872 32.2333 58.8955 32.215C58.9165 32.1837 58.9349 32.1392 58.9506 32.0817C59.0291 32.0662 59.041 31.989 58.9863 31.8504C58.9393 31.7509 58.9345 31.5208 58.9716 31.16C59.0192 30.7836 59.11 30.4189 59.2438 30.0661C59.2963 29.9197 59.3803 29.7264 59.4957 29.486C59.6085 29.2325 59.7357 28.9829 59.8773 28.7374C60.0293 28.4761 60.1708 28.2645 60.3018 28.1026C60.5743 27.763 60.8309 27.481 61.0718 27.2565C61.3258 27.0293 61.5902 26.8545 61.8649 26.732C62.1396 26.6095 62.4274 26.5184 62.7282 26.4587C63.0421 26.3964 63.3179 26.4504 63.5556 26.6208C63.8823 26.6918 64.1266 26.8269 64.2885 27.0258C64.4634 27.2222 64.6055 27.493 64.7148 27.8384C64.8319 28.2229 64.8887 28.7146 64.8852 29.3134C64.8792 29.8991 64.6885 30.6166 64.3134 31.4659C64.0798 32.0016 63.8321 32.4314 63.5701 32.7553C63.3082 33.0792 63.0096 33.3899 62.6745 33.6875C62.4362 33.9251 62.164 34.0947 61.8579 34.1962C61.5518 34.2977 61.251 34.3914 60.9554 34.4773ZM62.4813 31.6868C62.7197 31.3812 62.8679 31.0664 62.9259 30.7422C62.997 30.4154 63.0642 30.0351 63.1276 29.6011C63.1644 29.5122 63.1711 29.375 63.1478 29.1893C63.1376 29.001 63.1091 28.8231 63.0623 28.6557C63.0129 28.4752 62.9464 28.3797 62.8627 28.3691C62.7268 28.3009 62.6052 28.3047 62.4979 28.3803C62.388 28.4429 62.2545 28.5578 62.0973 28.7249C61.7699 29.1297 61.479 29.5817 61.2246 30.0808C60.9807 30.5642 60.8544 31.1262 60.8456 31.7668C60.8712 32.1015 60.9533 32.3435 61.0916 32.4928C61.2405 32.6264 61.4327 32.6358 61.6682 32.5211C61.9142 32.3907 62.1852 32.1126 62.4813 31.6868ZM72.4433 36.1121C72.2706 36.2007 72.0718 36.1926 71.8471 36.0877C71.6355 35.9802 71.4527 35.8125 71.2987 35.5848C71.1579 35.3545 71.1072 35.0995 71.1469 34.8197C71.1575 34.7361 71.1707 34.5975 71.1867 34.404C71.2053 34.2236 71.2081 34.0667 71.1952 33.9334C71.1901 33.8392 71.1982 33.6745 71.2195 33.4392C71.2434 33.217 71.2738 32.9934 71.3107 32.7686C71.3607 32.5412 71.4028 32.3765 71.4369 32.2746C71.4894 32.1282 71.5119 31.9674 71.5043 31.7922C71.5098 31.6144 71.5035 31.4797 71.4853 31.3882C71.4933 31.2915 71.5052 31.1803 71.5211 31.0549C71.55 30.9268 71.5842 30.8248 71.6235 30.7491C71.6289 30.6392 71.6461 30.5203 71.675 30.3922C71.7014 30.251 71.7382 30.1282 71.7854 30.0237C71.7934 29.9269 71.7909 29.8119 71.778 29.6785C71.7782 29.5425 71.8032 29.4628 71.8529 29.4393C71.8556 29.3844 71.8518 29.3308 71.8414 29.2785C71.8441 29.2236 71.856 29.1465 71.877 29.0471C71.8746 28.8981 71.8919 28.6772 71.929 28.3843C71.966 28.0915 72.0175 27.7687 72.0834 27.4158C72.152 27.0079 72.1851 26.6615 72.1829 26.3765C72.1782 26.0784 72.0699 25.9096 71.8581 25.87C71.7431 25.8385 71.6544 25.7338 71.5919 25.5559C71.5268 25.3649 71.5009 25.1661 71.5143 24.9595C71.5277 24.753 71.5828 24.6197 71.6796 24.5597C71.7869 24.484 71.9243 24.4228 72.0917 24.376C72.2592 24.3291 72.4096 24.2993 72.5429 24.2864C72.6868 24.2579 72.7548 24.258 72.7469 24.2867C72.7599 24.3521 72.8004 24.3848 72.8683 24.3849C72.8867 24.3405 72.9507 24.389 73.0603 24.5304C73.1804 24.656 73.2979 24.8026 73.4127 24.9702C73.5275 25.1377 73.5914 25.2541 73.6044 25.3195C73.5886 25.377 73.582 25.4123 73.5846 25.4254C73.5846 25.4254 73.6108 25.4202 73.6631 25.4098C73.6631 25.4098 73.7285 25.3629 73.8594 25.2689C73.9877 25.1619 74.1212 25.047 74.26 24.9243C74.4092 24.786 74.5048 24.6854 74.5468 24.6227C74.5468 24.6227 74.5769 24.6032 74.6371 24.564C74.7077 24.5092 74.764 24.4505 74.806 24.3878C75.0468 24.2312 75.3241 24.1558 75.6378 24.1615C75.9647 24.1646 76.2365 24.233 76.4534 24.3667C76.7798 24.6417 77.0565 25.0082 77.2833 25.4661C77.5232 25.9215 77.597 26.3962 77.5048 26.8902C77.4916 26.9608 77.4548 27.0837 77.3944 27.2588C77.3445 27.4182 77.2933 27.5711 77.2408 27.7175C77.1857 27.8507 77.1581 27.9174 77.1581 27.9174C76.9508 28.4479 76.6952 28.9064 76.3913 29.293C76.1004 29.677 75.7692 30.0282 75.3974 30.3467C75.2848 30.4642 75.1185 30.5855 74.8987 30.7107C74.6919 30.8333 74.4944 30.9337 74.306 31.0119C74.1307 31.0874 74.0208 31.116 73.9764 31.0977C73.8118 31.0216 73.6369 30.8252 73.4517 30.5085C73.42 30.6915 73.3884 30.8745 73.3567 31.0575C73.3356 31.2249 73.3236 31.336 73.3209 31.3909C73.326 31.485 73.3285 31.5661 73.3284 31.6341C73.3257 31.689 73.3021 31.7412 73.2576 31.7909C73.2576 31.7909 73.2562 31.8183 73.2535 31.8732C73.2509 31.9281 73.2207 32.0157 73.163 32.1359C73.1074 32.5411 73.0612 32.8561 73.0243 33.081C72.9899 33.3189 72.9596 33.5084 72.9332 33.6496C72.9226 33.8012 72.9132 33.9594 72.9051 34.1241C72.949 34.4824 72.938 34.872 72.872 35.2929C72.8191 35.7112 72.6762 35.9843 72.4433 36.1121ZM74.1008 29.1563C74.1479 29.1198 74.2304 29.0558 74.3482 28.9645C74.4791 28.8705 74.6205 28.7609 74.7723 28.6356C74.9216 28.4972 75.059 28.368 75.1847 28.2479C75.3209 28.1121 75.4139 27.9985 75.4637 27.9071C75.545 27.7686 75.5856 27.6654 75.5857 27.5974C75.5832 27.5163 75.5913 27.3856 75.6098 27.2052C75.6283 27.0928 75.6507 26.966 75.6771 26.8248C75.7034 26.6837 75.7246 26.5503 75.7404 26.4248C75.772 26.3098 75.7708 26.2013 75.737 26.0993C75.7136 25.9816 75.6549 25.8913 75.5609 25.8284C75.506 25.8257 75.3856 25.87 75.1998 25.9612C75.0271 26.0499 74.8321 26.1973 74.6147 26.4036C74.4105 26.6072 74.2205 26.8828 74.0448 27.2304C73.8402 27.638 73.7207 27.9947 73.6863 28.3006C73.6493 28.5934 73.6738 28.8197 73.7598 28.9793C73.8433 29.1258 73.957 29.1848 74.1008 29.1563ZM82.1098 30.7883C81.3905 30.9311 80.7931 30.8322 80.3177 30.4915C79.8554 30.1483 79.5385 29.5451 79.3672 28.6819C79.2738 28.2111 79.2562 27.6777 79.3146 27.0816C79.3861 26.4829 79.5125 25.8868 79.6938 25.2935C79.8882 24.6976 80.123 24.1685 80.3982 23.706C80.6709 23.2305 80.9682 22.8792 81.2901 22.6522C81.4079 22.5609 81.5362 22.4878 81.6748 22.4331C81.824 22.3627 81.9705 22.3133 82.1143 22.2847C82.2713 22.2536 82.4439 22.2329 82.6322 22.2227C82.831 22.1969 83.0218 22.1998 83.2048 22.2314C83.5238 22.2633 83.8204 22.3879 84.0947 22.6053C84.382 22.8202 84.575 23.1761 84.6736 23.673C84.6996 23.8038 84.715 23.9503 84.72 24.1124C84.7224 24.2615 84.7052 24.4144 84.6684 24.5713C84.584 25.0366 84.4042 25.5005 84.129 25.9629C83.8668 26.4227 83.5617 26.7688 83.2135 27.001C83.1193 27.074 83.0225 27.1341 82.923 27.181C82.8341 27.2122 82.7373 27.2382 82.6327 27.259C82.358 27.3135 82.1017 27.3236 81.8638 27.2892C81.639 27.2523 81.4221 27.1866 81.213 27.0922L81.0288 26.986L80.9697 27.2017C80.9275 27.4683 80.9036 27.6905 80.8981 27.8683C80.9057 28.0436 80.9173 28.1704 80.9329 28.2489C80.964 28.4058 81.003 28.568 81.0498 28.7354C81.094 28.8897 81.1592 29.0127 81.2454 29.1044C81.3107 29.1594 81.3865 29.1987 81.4727 29.2224C81.572 29.2434 81.6871 29.241 81.8179 29.215C81.8964 29.1995 81.9683 29.1852 82.0337 29.1722C82.1095 29.1436 82.1723 29.1175 82.2221 29.094C82.4471 28.995 82.6198 28.8724 82.7403 28.7261C82.8713 28.5642 83.0127 28.4206 83.1646 28.2953L83.2353 28.2405L83.204 28.1855C83.4029 28.0237 83.5391 27.9219 83.6123 27.8802C83.683 27.8253 83.7354 27.781 83.7694 27.747C83.8114 27.6843 83.865 27.6465 83.9304 27.6335C84.1083 27.571 84.2953 27.5883 84.4912 27.6853C84.6977 27.7667 84.8191 27.8989 84.8554 28.082C84.871 28.1605 84.8368 28.2964 84.7528 28.4898C84.682 28.6806 84.5784 28.8778 84.4421 29.0816C84.3163 29.2697 84.1775 29.4264 84.0257 29.5517C83.989 29.5725 83.9537 29.5999 83.9196 29.6339C83.883 29.6547 83.8477 29.6822 83.8136 29.7161L83.8332 29.7122C83.7467 29.8925 83.6445 29.9943 83.5268 30.0177L83.3699 30.0488C83.3358 30.1508 83.1852 30.2826 82.9183 30.4443C82.6539 30.6192 82.3844 30.7338 82.1098 30.7883ZM82.1915 25.8581C82.3092 25.8347 82.4099 25.7943 82.4937 25.7369C82.5905 25.6769 82.6795 25.6117 82.7607 25.5412C83.0304 25.2566 83.176 24.9286 83.1975 24.5573C83.219 24.1861 83.1331 23.9244 82.9398 23.7725C82.9058 23.7385 82.868 23.7188 82.8261 23.7135C82.7817 23.6951 82.7333 23.6911 82.681 23.7015C82.5372 23.7301 82.3828 23.8083 82.2178 23.9362C82.066 24.0615 81.9219 24.226 81.7857 24.4298C81.6494 24.6335 81.5327 24.8674 81.4355 25.1313L81.2623 25.5939C81.2858 25.5757 81.3042 25.5652 81.3172 25.5626C81.3408 25.5444 81.3591 25.5339 81.3722 25.5313C81.4899 25.508 81.5762 25.5316 81.631 25.6023C81.6858 25.673 81.7471 25.7424 81.815 25.8105C81.896 25.876 82.0215 25.8918 82.1915 25.8581ZM88.1956 28.8464C88.0465 28.9167 87.8608 28.906 87.6387 28.8142C87.4166 28.7223 87.2076 28.5939 87.0117 28.4289C86.8158 28.2638 86.6827 28.1067 86.6123 27.9576C86.5055 27.6933 86.4524 27.3572 86.453 26.9493C86.4641 26.5257 86.5301 26.0708 86.6511 25.5846C86.7695 25.0854 86.9428 24.5888 87.171 24.0949C87.3966 23.588 87.6706 23.119 87.9928 22.688C88.3151 22.257 88.6856 21.898 89.1044 21.611C89.2798 21.4674 89.4042 21.3748 89.4775 21.3331C89.5481 21.2782 89.6266 21.2627 89.7129 21.2863C89.7965 21.2969 89.9468 21.335 90.1638 21.4007C90.3572 21.4167 90.5533 21.4458 90.752 21.4879C90.9611 21.5143 91.1571 21.6114 91.3399 21.779C91.4835 21.9544 91.6009 22.135 91.6921 22.3208C91.7834 22.5066 91.8733 22.7198 91.9618 22.9605C92.1314 23.2667 92.2134 23.4747 92.208 23.5845C92.2 23.6813 92.1751 23.761 92.1332 23.8237C92.0545 23.9752 92.0413 24.0458 92.0936 24.0354C92.0936 24.0354 92.0923 24.0629 92.0896 24.1178C92.0974 24.157 92.0842 24.2276 92.05 24.3295C92.0156 24.6354 91.9982 24.9244 91.9978 25.1963C92.0079 25.4526 92.0585 25.6736 92.1498 25.8594C92.3115 26.1264 92.4826 26.2691 92.663 26.2877C92.8565 26.3037 93.0685 26.1392 93.2991 25.7944C93.4222 25.6612 93.5727 25.5634 93.7506 25.5009C93.9259 25.4253 94.024 25.4398 94.0447 25.5445C94.0447 25.5445 94.0682 25.5602 94.1153 25.5916C94.1597 25.61 94.2081 25.614 94.2604 25.6036C94.3258 25.5906 94.3649 25.6508 94.3778 25.7842C94.3881 25.9045 94.3892 26.047 94.3811 26.2117C94.373 26.3765 94.3466 26.5176 94.302 26.6352C94.1448 26.8704 94.0726 27.0206 94.0856 27.086C94.0856 27.086 94.0647 27.1173 94.0227 27.18C93.9913 27.2271 93.9323 27.3067 93.8459 27.419C93.639 27.6096 93.3525 27.7413 92.9863 27.8139C92.6332 27.884 92.3443 27.8666 92.1195 27.7617C91.8948 27.6568 91.6636 27.5191 91.4259 27.3488C91.2013 27.1759 91.0446 27.0031 90.956 26.8304L90.819 26.6537L90.324 27.1393C90.2087 27.3117 90.1262 27.4437 90.0763 27.5351C90.0239 27.6135 89.9768 27.684 89.9348 27.7467C89.906 27.8068 89.8693 27.8617 89.8248 27.9113C89.7933 27.9583 89.7514 27.987 89.6991 27.9974C89.6468 28.0078 89.601 28.0169 89.5618 28.0247C89.5226 28.0325 89.503 28.0363 89.503 28.0363C89.5133 28.0887 89.4361 28.1788 89.2711 28.3066C89.1036 28.4215 88.9152 28.5336 88.7058 28.6431C88.4965 28.7527 88.3264 28.8204 88.1956 28.8464ZM88.2805 27.1167C88.359 27.1012 88.4676 27.032 88.6064 26.9093C88.7556 26.771 88.9141 26.6104 89.0817 26.4276C89.2493 26.2448 89.3973 26.0659 89.5257 25.8909C89.6672 25.7133 89.768 25.5709 89.8283 25.4638C89.8703 25.4011 89.9123 25.3044 89.9543 25.1737C90.0094 25.0404 90.0736 24.9189 90.147 24.8092C90.3803 24.4095 90.5167 24.1037 90.5563 23.892C90.5932 23.6672 90.5164 23.4513 90.3258 23.2445C90.2449 23.111 90.164 23.0455 90.0829 23.048C90.0018 23.0505 89.8474 23.1287 89.6197 23.2827C89.481 23.4054 89.3408 23.5895 89.1992 23.8351C89.0577 24.0807 88.9148 24.3537 88.7705 24.6542C88.6393 24.9521 88.5225 25.254 88.4201 25.5598C88.3177 25.8656 88.2362 26.14 88.1757 26.3831C88.1283 26.6236 88.1176 26.8092 88.1435 26.94C88.1539 26.9923 88.1761 27.0355 88.21 27.0696C88.257 27.101 88.2805 27.1167 88.2805 27.1167ZM95.8754 27.3221C95.7287 27.4735 95.5194 27.5491 95.2475 27.5487C94.9886 27.5457 94.7624 27.5362 94.5689 27.5202C94.5272 27.4469 94.4802 27.3815 94.428 27.3239C94.3863 27.2506 94.3446 27.1773 94.3028 27.1041C94.222 26.9706 94.1659 26.8594 94.1347 26.7704C94.1165 26.6789 94.1087 26.6056 94.1114 26.5507C94.1142 26.4278 94.1418 26.3272 94.1943 26.2488C94.2441 26.1574 94.3083 26.0699 94.3868 25.9863C94.4653 25.9707 94.5438 25.9552 94.6222 25.9396C94.7007 25.924 94.7792 25.9084 94.8576 25.8929C94.8996 25.8302 94.9428 25.774 94.9873 25.7244C95.0319 25.6748 95.0921 25.6356 95.1679 25.607C95.3539 25.3798 95.5269 25.0872 95.687 24.7292C95.8601 24.3685 96.0149 23.9844 96.1515 23.5767C96.2985 23.1533 96.4273 22.7403 96.5377 22.3378C96.6455 21.9222 96.7297 21.5588 96.7903 21.2477C96.7956 21.2059 96.8009 21.1641 96.8062 21.1222C96.8115 21.0804 96.8181 21.0451 96.8259 21.0164C96.75 21.113 96.6479 21.1808 96.5197 21.2199C96.4046 21.2563 96.2803 21.281 96.147 21.2939C96.1051 21.2886 96.0646 21.2898 96.0254 21.2976C95.9835 21.2923 95.9417 21.287 95.8999 21.2817C95.7482 21.2711 95.6058 21.2382 95.4725 21.1831C95.3523 21.1253 95.2713 21.0599 95.2296 20.9866C95.1774 20.929 95.1265 20.8779 95.0768 20.8334C95.0246 20.7758 94.9737 20.7247 94.9241 20.6802C94.9662 20.4815 95.0476 20.2751 95.1682 20.0608C95.3019 19.844 95.4616 19.6899 95.6474 19.5987C95.93 19.4474 96.2702 19.312 96.6678 19.1923C97.0785 19.07 97.497 18.9869 97.9233 18.9431C98.3601 18.8836 98.7706 18.8972 99.1548 18.9841C99.2124 18.9999 99.2699 19.0156 99.3274 19.0314C99.3849 19.0472 99.4424 19.063 99.4999 19.0787C99.6149 19.1103 99.7194 19.1575 99.8135 19.2204C99.9075 19.2833 99.995 19.3475 100.076 19.413C100.16 19.4915 100.239 19.5845 100.315 19.6918C100.401 19.7835 100.47 19.8921 100.522 20.0177C100.595 20.1799 100.647 20.3735 100.678 20.5984C100.709 20.8233 100.727 21.0508 100.732 21.281C100.724 21.5817 100.703 21.885 100.668 22.1908C100.634 22.4967 100.606 22.7673 100.585 23.0026C100.518 23.5595 100.452 24.1164 100.386 24.6733C100.33 25.2145 100.284 25.7674 100.246 26.3322C100 26.4626 99.7531 26.5184 99.5047 26.4998C99.2694 26.4785 99.0394 26.3814 98.8148 26.2085C98.6739 25.9782 98.584 25.765 98.5451 25.5688C98.5036 25.3595 98.5183 25.1255 98.5893 24.8668C98.6498 24.6237 98.6684 24.3753 98.6453 24.1216C98.6221 23.8679 98.6682 23.6209 98.7836 23.3805C98.7629 23.2758 98.7551 23.2026 98.7604 23.1608C98.7477 22.9594 98.7492 22.762 98.7652 22.5685C98.7786 22.362 98.7998 22.1607 98.8289 21.9646C98.871 21.7659 98.9 21.5698 98.916 21.3764C98.9425 21.1672 98.9506 20.9685 98.9404 20.7802C98.9431 20.7253 98.9406 20.6782 98.9328 20.639C98.9224 20.5867 98.912 20.5344 98.9016 20.482C98.8729 20.4742 98.7709 20.474 98.5957 20.4816C98.4336 20.4866 98.3486 20.5035 98.3407 20.5322C98.3328 20.561 98.3262 20.5963 98.3209 20.6381C98.3261 20.6642 98.3247 20.6917 98.3169 20.7205C98.2905 20.8616 98.2654 21.0093 98.2417 21.1636C98.2153 21.3047 98.1824 21.4472 98.143 21.591C98.0825 21.8341 98.022 22.0771 97.9615 22.3202C97.9141 22.5607 97.8745 22.8065 97.8428 23.0575C97.8401 23.1124 97.8203 23.2183 97.7835 23.3751C97.7466 23.5319 97.7098 23.6888 97.6729 23.8456C97.6335 23.9894 97.6059 24.09 97.5901 24.1475C97.5376 24.2939 97.4851 24.4402 97.4326 24.5866C97.3932 24.7303 97.3381 24.8636 97.2673 24.9864C97.0601 25.381 96.8556 25.7886 96.6536 26.2093C96.4516 26.63 96.1922 27.0009 95.8754 27.3221ZM102.321 24.7581C102.259 24.5122 102.225 24.2062 102.221 23.8401C102.227 23.4584 102.261 23.0845 102.324 22.7185C102.385 22.3394 102.459 22.0257 102.545 21.7775C102.514 21.5525 102.532 21.3656 102.597 21.2166C102.673 21.052 102.722 20.92 102.743 20.8207C102.756 20.6821 102.804 20.4756 102.885 20.2012C102.967 19.9267 103.061 19.6497 103.169 19.3701C103.274 19.0773 103.373 18.8605 103.468 18.7194C103.507 18.3717 103.572 18.1142 103.661 17.947C103.75 17.7797 103.875 17.6531 104.034 17.567C104.115 17.5646 104.224 17.5634 104.36 17.5636C104.509 17.5612 104.664 17.6255 104.826 17.7565C104.876 17.801 104.97 17.8639 105.108 17.9452C105.244 18.0133 105.36 18.1534 105.457 18.3654C105.504 18.6008 105.482 18.8021 105.393 18.9693C105.315 19.1209 105.253 19.2554 105.208 19.373C105.14 19.5089 105.077 19.6369 105.019 19.7571C104.972 19.8617 104.925 19.9662 104.878 20.0707C104.831 20.1753 104.773 20.2955 104.705 20.4313C104.733 20.4392 104.748 20.4432 104.748 20.4432C104.761 20.4406 104.774 20.438 104.787 20.4354C104.954 20.3885 105.157 20.3823 105.395 20.4166C105.633 20.451 105.862 20.5075 106.081 20.5863C106.298 20.652 106.461 20.7215 106.571 20.7949C106.681 20.8683 106.798 20.9469 106.924 21.0308C107.047 21.1015 107.167 21.1932 107.284 21.3059C107.412 21.4028 107.521 21.5376 107.609 21.7103C107.659 21.7549 107.732 21.8491 107.828 21.9931C107.925 22.137 107.984 22.2953 108.004 22.4679C108.012 22.5072 108.013 22.5477 108.008 22.5895C108.016 22.6288 108.017 22.6693 108.012 22.7111C108.024 23.0485 107.934 23.3791 107.74 23.7031C107.543 24.0139 107.331 24.2804 107.103 24.5023C106.663 24.8886 106.227 25.1926 105.796 25.4143C105.364 25.6359 104.826 25.8038 104.183 25.9179C104.131 25.9283 104.085 25.9374 104.045 25.9452C104.006 25.9529 103.966 25.9542 103.924 25.9489C103.723 25.9617 103.525 25.9261 103.332 25.8421C103.151 25.7556 102.946 25.6128 102.717 25.4137C102.516 25.2225 102.384 25.004 102.321 24.7581ZM104.08 24.0625C104.297 23.9922 104.462 23.9323 104.574 23.8828C104.7 23.8307 104.855 23.759 105.041 23.6677C105.169 23.5607 105.306 23.4589 105.45 23.3624C105.591 23.2528 105.73 23.1301 105.866 22.9943C106.013 22.8429 106.127 22.6639 106.208 22.4574C106.239 22.3424 106.259 22.2366 106.267 22.1398C106.273 22.03 106.224 21.958 106.122 21.9239C105.971 21.8452 105.832 21.7979 105.707 21.7821C105.592 21.7505 105.462 21.749 105.319 21.7776C105.282 21.7984 105.236 21.8075 105.181 21.8048C105.137 21.7865 105.094 21.7746 105.052 21.7693C104.858 21.7534 104.707 21.7767 104.597 21.8393C104.5 21.8993 104.402 21.9527 104.302 21.9997C104.326 22.0494 104.328 22.0965 104.31 22.1409C104.305 22.1827 104.284 22.2481 104.247 22.3369C104.252 22.3631 104.228 22.4153 104.176 22.4937C104.15 22.5669 104.13 22.6728 104.117 22.8113C104.114 22.9342 104.106 23.0649 104.093 23.2035C104.092 23.3395 104.084 23.4702 104.069 23.5957C104.066 23.6506 104.059 23.7199 104.049 23.8036C104.035 23.8742 104.046 23.9605 104.08 24.0625ZM114.922 23.9699C114.818 23.9906 114.74 24.0127 114.691 24.0362C114.641 24.0597 114.56 24.0622 114.447 24.0437C114.351 24.0357 114.148 24.008 113.84 23.9604C113.665 23.7641 113.542 23.5573 113.472 23.3402C113.412 23.1074 113.378 22.8694 113.371 22.6262C113.374 22.3673 113.398 22.1111 113.443 21.8575C113.487 21.6039 113.528 21.3647 113.565 21.1399C113.555 21.1556 113.536 21.166 113.51 21.1712C113.484 21.1764 113.459 21.1881 113.436 21.2064C113.323 21.2559 113.211 21.3054 113.098 21.3549C112.983 21.3914 112.863 21.4356 112.737 21.4878C112.536 21.5685 112.341 21.648 112.152 21.7262C111.961 21.7913 111.766 21.8707 111.568 21.9646C111.523 21.9462 111.472 21.9291 111.415 21.9134C111.37 21.895 111.327 21.8832 111.285 21.8779C111.275 22.0295 111.273 22.1929 111.281 22.3682C111.288 22.5434 111.289 22.7199 111.284 22.8977C111.291 23.0729 111.286 23.2507 111.267 23.4311C111.259 23.5958 111.23 23.7579 111.18 23.9173C110.9 24.0137 110.694 24.0683 110.56 24.0812C110.427 24.094 110.214 24.082 109.921 24.0449C109.788 23.9218 109.681 23.7935 109.6 23.6601C109.53 23.5109 109.479 23.3579 109.448 23.2009C109.385 22.8871 109.389 22.5602 109.457 22.2204C109.523 21.8674 109.58 21.5367 109.627 21.2283C109.651 21.074 109.664 20.9354 109.667 20.8126C109.68 20.674 109.674 20.5393 109.648 20.4085C109.669 20.3772 109.698 20.2831 109.735 20.1262C109.769 19.9563 109.811 19.7577 109.861 19.5302C109.922 19.2192 109.985 18.8872 110.051 18.5342C110.117 18.1813 110.169 17.865 110.209 17.5853C110.246 17.2925 110.262 17.099 110.257 17.0048C110.208 16.6884 110.334 16.5003 110.634 16.4406C110.828 16.3886 111.05 16.4124 111.301 16.5121C111.552 16.6119 111.757 16.7547 111.916 16.9406C112.075 17.1265 112.109 17.3305 112.017 17.5526C111.986 17.7356 111.954 17.9186 111.922 18.1016C111.891 18.2846 111.86 18.4741 111.831 18.6702C111.8 18.8532 111.768 19.0362 111.736 19.2192C111.705 19.4022 111.673 19.5852 111.641 19.7682C111.639 19.8231 111.635 19.8715 111.629 19.9133C111.624 19.9551 111.614 20.0048 111.598 20.0623C111.674 20.0336 111.75 20.005 111.825 19.9763C111.912 19.932 111.984 19.8837 112.041 19.8315C112.172 19.8056 112.362 19.7679 112.61 19.7186C112.872 19.6667 113.107 19.62 113.317 19.5784C113.46 19.6179 113.579 19.669 113.673 19.7319C113.736 19.4339 113.8 19.1359 113.863 18.8379C113.923 18.5268 113.971 18.2183 114.005 17.9125C114.05 17.5909 114.07 17.2811 114.066 16.9829C114.068 16.7921 114.116 16.6196 114.208 16.4654C114.299 16.3113 114.415 16.1728 114.553 16.0501C114.862 16.0977 115.138 16.1517 115.381 16.2122C115.637 16.2701 115.831 16.4626 115.964 16.7896C115.935 16.9177 115.927 17.0484 115.94 17.1818C115.953 17.3152 115.945 17.4459 115.916 17.574C115.829 18.0263 115.738 18.4929 115.643 18.9739C115.546 19.4418 115.463 19.9137 115.394 20.3895C115.336 20.8496 115.307 21.3176 115.306 21.7935C115.308 21.9426 115.298 22.0942 115.274 22.2485C115.25 22.4027 115.228 22.5635 115.206 22.7308C115.196 22.8825 115.192 23.0328 115.194 23.1819C115.209 23.3283 115.197 23.4734 115.158 23.6172C115.116 23.7479 115.037 23.8654 114.922 23.9699ZM119.539 22.8496C119.369 22.8833 119.225 22.8779 119.108 22.8333C119.003 22.786 118.867 22.7179 118.7 22.6287C118.4 22.4165 118.141 22.1755 117.925 21.9059C117.721 21.6336 117.617 21.3824 117.612 21.1523C117.63 21.0399 117.624 20.9392 117.593 20.8503C117.572 20.7457 117.562 20.6933 117.562 20.6933C117.483 20.6409 117.456 20.6056 117.479 20.5873C117.5 20.556 117.519 20.5115 117.534 20.454C117.613 20.4385 117.625 20.3613 117.57 20.2227C117.523 20.1232 117.518 19.8931 117.555 19.5323C117.603 19.1558 117.694 18.7912 117.828 18.4384C117.88 18.292 117.964 18.0987 118.079 17.8583C118.192 17.6048 118.319 17.3552 118.461 17.1096C118.613 16.8484 118.755 16.6368 118.886 16.4749C119.158 16.1353 119.415 15.8533 119.656 15.6288C119.91 15.4016 120.174 15.2268 120.449 15.1043C120.723 14.9818 121.011 14.8907 121.312 14.831C121.626 14.7687 121.902 14.8227 122.139 14.993C122.466 15.0641 122.71 15.1992 122.872 15.3981C123.047 15.5945 123.189 15.8653 123.299 16.2107C123.416 16.5952 123.473 17.0869 123.469 17.6857C123.463 18.2714 123.272 18.9889 122.897 19.8382C122.664 20.3739 122.416 20.8037 122.154 21.1276C121.892 21.4515 121.593 21.7622 121.258 22.0598C121.02 22.2974 120.748 22.467 120.442 22.5685C120.136 22.67 119.835 22.7637 119.539 22.8496ZM121.065 20.0591C121.303 19.7535 121.452 19.4387 121.51 19.1145C121.581 18.7877 121.648 18.4074 121.711 17.9734C121.748 17.8845 121.755 17.7473 121.732 17.5616C121.721 17.3733 121.693 17.1954 121.646 17.028C121.597 16.8475 121.53 16.752 121.446 16.7414C121.311 16.6732 121.189 16.677 121.082 16.7526C120.972 16.8152 120.838 16.9301 120.681 17.0972C120.354 17.502 120.063 17.954 119.808 18.4531C119.564 18.9365 119.438 19.4985 119.429 20.1391C119.455 20.4738 119.537 20.7158 119.675 20.8651C119.824 20.9987 120.016 21.0081 120.252 20.8934C120.498 20.763 120.769 20.4849 121.065 20.0591ZM44.3634 68.3557C44.2641 68.3346 44.1008 68.2651 43.8734 68.1471C43.6592 68.0265 43.4554 67.8902 43.2621 67.7383C43.0845 67.5968 42.988 67.4868 42.9724 67.4084C42.9568 67.3299 42.948 67.1141 42.9459 66.7611C42.9464 66.4212 42.9509 65.9989 42.9595 65.4942C42.9837 65.0001 43.0119 64.4915 43.0441 63.9686C43.0919 63.4561 43.1501 62.996 43.2187 62.5882C43.2319 62.5176 43.274 62.2849 43.3452 61.8902C43.4269 61.4798 43.4864 60.9922 43.5239 60.4274C43.561 60.0666 43.6217 59.6536 43.7061 59.1882C43.7905 58.7229 43.8814 58.2563 43.9788 57.7884C44.0736 57.3074 44.1462 56.8852 44.1964 56.5218C44.2466 56.1584 44.3099 55.7924 44.3862 55.4238C44.46 55.0421 44.4983 54.8238 44.501 54.7689C44.5115 54.6853 44.5705 54.6056 44.6778 54.5299C44.7956 54.4386 44.916 54.3603 45.039 54.2951C45.1594 54.2168 45.2379 54.1673 45.2746 54.1464C45.497 54.0343 45.7192 54.0921 45.9411 54.32C46.0299 54.4247 46.0754 54.5856 46.0777 54.8026C46.0905 55.004 46.0679 55.2327 46.01 55.4889L45.9505 55.9085L46.6256 55.6114C46.7433 55.5881 46.9081 55.5621 47.1199 55.5337C47.3318 55.5052 47.5371 55.4781 47.7359 55.4522C47.9477 55.4238 48.0955 55.4148 48.1791 55.4254C48.4956 55.3762 48.7231 55.3922 48.8615 55.4735C49.0131 55.5521 49.1515 55.6674 49.2768 55.8193C49.3552 55.8717 49.4518 55.9476 49.5667 56.0472C49.679 56.1336 49.7521 56.2279 49.786 56.3299C49.8824 56.5418 49.9147 56.8073 49.8829 57.1263C49.8641 57.4426 49.8008 57.7746 49.6931 58.1223C49.5959 58.4542 49.4621 58.773 49.2917 59.0787C49.1317 59.3687 48.9666 59.5986 48.7964 59.7683C48.676 59.8466 48.57 59.9288 48.4784 60.015C48.3841 60.0881 48.337 60.1246 48.337 60.1246C48.3369 60.1926 48.2216 60.331 47.9912 60.5399C47.7739 60.7461 47.5095 60.9549 47.198 61.1663C46.897 61.3619 46.6196 61.5054 46.3658 61.5965C46.2769 61.6278 46.1487 61.6668 45.9813 61.7136C45.8139 61.7604 45.6792 61.7668 45.5773 61.7326C45.4282 61.735 45.3275 61.7414 45.2752 61.7518C45.2229 61.7622 45.2019 61.7935 45.2123 61.8458C45.2044 61.8746 45.1544 62.102 45.0623 62.5281C44.9701 62.9542 44.9013 63.532 44.8558 64.2615C44.7578 65.0693 44.6784 65.7308 44.6175 66.2458C44.5592 66.774 44.5116 67.1844 44.4745 67.4772C44.4506 67.7674 44.4307 67.9753 44.4148 68.1008C44.4015 68.2394 44.3844 68.3243 44.3634 68.3557ZM45.3405 60.0261C45.3953 60.0968 45.5378 60.0957 45.768 60.0228C45.9956 59.9368 46.2482 59.8051 46.5256 59.6277C46.803 59.4503 47.0439 59.2598 47.2482 59.0561C47.4629 58.8368 47.5717 58.6317 47.5746 58.4408C47.7974 58.0567 47.9534 57.7811 48.0426 57.6139C48.1291 57.4336 48.0979 57.3106 47.949 57.245C47.7636 57.0643 47.5349 57.0078 47.2628 57.0754C47.0039 57.1404 46.6178 57.3869 46.1047 57.815C45.8979 57.9376 45.7618 58.0394 45.6963 58.1203C45.6282 58.1882 45.5797 58.2862 45.5507 58.4143C45.5349 58.5398 45.494 58.745 45.4282 59.0299C45.3676 59.341 45.332 59.5724 45.3213 59.724C45.3106 59.8757 45.317 59.9764 45.3405 60.0261ZM54.0125 61.2003C53.9131 61.2472 53.7783 61.2875 53.6083 61.3213C53.4357 61.3419 53.2814 61.3522 53.1455 61.352C53.02 61.3361 52.9533 61.3085 52.9455 61.2693C52.9326 61.2039 52.8934 61.1777 52.828 61.1907C52.828 61.1907 52.7457 61.1526 52.581 61.0766C52.4138 60.9874 52.2662 60.9284 52.1381 60.8994C51.984 60.7397 51.864 60.546 51.7781 60.3184C51.7026 60.0751 51.6954 59.6279 51.7565 58.9769C51.6865 58.5558 51.7173 58.0943 51.8487 57.5925C51.9776 57.0775 52.1679 56.564 52.4197 56.0518C52.6715 55.5397 52.9467 55.0773 53.2454 54.6645C53.5415 54.2387 53.8166 53.9123 54.0706 53.6852C54.2173 53.4657 54.4398 53.3196 54.738 53.2468C55.0493 53.1715 55.3356 53.1758 55.597 53.2599C55.7407 53.2993 55.9105 53.4015 56.1064 53.5665C56.3023 53.7316 56.4942 53.911 56.6822 54.1047C56.8676 54.2854 57.0164 54.453 57.1286 54.6075C57.1964 54.7435 57.2551 54.8678 57.3046 54.9803C57.3646 55.0772 57.4167 55.2028 57.4609 55.3571C57.5052 55.5114 57.5388 55.7495 57.5619 56.0711C57.5432 56.3195 57.5324 56.5731 57.5294 56.832C57.5369 57.0752 57.5653 57.321 57.6146 57.5695C57.6378 57.8232 57.699 57.9946 57.7982 58.0836C57.9105 58.1701 58.0426 58.1507 58.1944 58.0254C58.3358 57.9157 58.498 57.8768 58.681 57.9084C58.8614 57.927 58.9998 58.0082 59.0964 58.1522C59.2034 58.2805 59.2214 58.474 59.1504 58.7328C59.1057 58.9184 59.0139 59.1065 58.8751 59.2972C58.7362 59.4879 58.5725 59.6563 58.384 59.8025C58.1929 59.9355 57.9993 60.0215 57.8031 60.0605C57.6593 60.089 57.505 60.0653 57.3404 59.9892C57.1732 59.9 57.0113 59.7691 56.8546 59.5963C56.698 59.4234 56.5571 59.2271 56.4319 59.0073L56.2246 58.5795L55.6469 59.367C55.5132 59.5838 55.3769 59.7876 55.2381 59.9783C55.1097 60.1533 55.0324 60.2774 55.0061 60.3506C54.9641 60.4812 54.8541 60.6118 54.676 60.7423C54.5111 60.8702 54.2899 61.0228 54.0125 61.2003ZM54.1684 59.2119C54.3648 59.037 54.5232 58.8424 54.6438 58.6281C54.7775 58.4113 54.9008 58.1761 55.0136 57.9227C55.1238 57.6561 55.2445 57.3739 55.3757 57.076C55.5383 56.731 55.6472 56.4579 55.7024 56.2567C55.7707 56.0528 55.8102 55.8411 55.821 55.6214C55.7401 55.4879 55.6384 55.3518 55.5157 55.2131C55.3904 55.0612 55.2807 54.9878 55.1865 54.9929C55.0034 55.0293 54.8032 55.1846 54.5857 55.4588C54.3814 55.7305 54.1703 56.1054 53.9526 56.5836C53.9132 56.6594 53.8686 56.777 53.8187 56.9364C53.7688 57.0958 53.7176 57.2487 53.6651 57.3951C53.623 57.5258 53.5928 57.6133 53.5745 57.6578C53.5456 57.7179 53.5114 57.8538 53.4719 58.0655C53.4428 58.2616 53.4216 58.4629 53.4082 58.6695C53.3923 58.8629 53.3921 58.9989 53.4076 59.0774C53.4232 59.1559 53.4466 59.2396 53.4779 59.3285C53.5222 59.4149 53.5993 59.4608 53.7091 59.4661C53.8189 59.4715 53.972 59.3868 54.1684 59.2119ZM62.4479 59.995C62.359 59.9582 62.2165 59.9253 62.0205 59.8963C61.8375 59.8647 61.6545 59.833 61.4715 59.8014C61.2859 59.7566 61.1395 59.7041 61.0324 59.6438C60.6745 59.4158 60.4055 59.1565 60.2255 58.866C60.056 58.5598 59.9427 58.2629 59.8856 57.9752C59.8416 57.6848 59.8197 57.4377 59.82 57.2337C59.8177 57.0167 59.8127 56.8886 59.8049 56.8493C59.7607 56.695 59.7583 56.5459 59.7977 56.4022C59.8371 56.2584 59.8674 56.1369 59.8884 56.0375C60.0435 55.5174 60.1906 55.06 60.3297 54.6654C60.4689 54.2707 60.6971 53.8108 61.0142 53.2857C61.1112 53.1577 61.2173 53.0415 61.3325 52.9371C61.4477 52.8327 61.5863 52.7779 61.7485 52.773L62.2659 53.0169C62.4095 53.1243 62.5009 53.2421 62.5399 53.3703C62.592 53.4959 62.6075 53.6424 62.5863 53.8097C62.5783 53.9064 62.5651 54.011 62.5467 54.1234C62.5282 54.2358 62.494 54.3377 62.4442 54.4292C62.2634 54.6826 62.1284 54.9609 62.039 55.2641C61.9601 55.5516 61.8839 55.8182 61.8103 56.0639C61.784 56.205 61.7472 56.3279 61.7 56.4324C61.6502 56.5239 61.6029 56.6284 61.5583 56.746C61.5321 56.8192 61.5006 56.9002 61.4638 56.989C61.4402 57.0753 61.4256 57.1733 61.4202 57.2831C61.4303 57.5394 61.4432 57.7068 61.4587 57.7853C61.4743 57.8637 61.5095 57.9723 61.5642 58.111C61.6792 58.1425 61.84 58.131 62.0467 58.0764C62.2533 58.0218 62.3776 57.9631 62.4195 57.9004C62.6265 57.6418 62.7628 57.4381 62.8284 57.2891C62.9044 57.1245 62.9596 56.9572 62.9938 56.7873C63.0255 56.6043 63.0807 56.3691 63.1596 56.0815C63.2279 55.8777 63.2714 55.6176 63.2902 55.3012C63.322 54.9822 63.3355 54.6737 63.3307 54.3756C63.326 54.0775 63.2949 53.8865 63.2375 53.8028C63.2036 53.7008 63.1711 53.5713 63.14 53.4143C63.1088 53.2574 63.079 53.107 63.0504 52.9631C63.0374 52.8977 63.0179 52.8336 62.9919 52.7708C62.9658 52.7081 62.9384 52.6387 62.9098 52.5628C62.8785 52.4739 62.842 52.3928 62.8003 52.3195C62.639 51.7806 62.5089 51.3306 62.4101 50.9697C62.3243 50.6061 62.2594 50.2791 62.2154 49.9888C62.1844 49.6959 62.1627 49.3807 62.1501 49.0434C62.1635 48.8369 62.2278 48.6134 62.3433 48.373C62.4691 48.1169 62.5871 47.9236 62.6971 47.793C62.891 47.537 63.1842 47.3021 63.5767 47.0883C63.9693 46.8744 64.3316 46.7481 64.6638 46.7094C64.7527 46.6781 64.8691 46.6482 65.013 46.6197C65.1569 46.5911 65.3073 46.5613 65.4642 46.5301C65.6316 46.4833 65.7873 46.4456 65.9311 46.4171C66.0436 46.3675 66.1378 46.3285 66.2137 46.2998C66.3001 46.2555 66.4349 46.1472 66.6182 45.9748C66.8512 45.7791 67.0762 45.714 67.2931 45.7797L67.9472 46.4043C67.9964 46.7208 67.9228 47.0005 67.7263 47.2434C67.5403 47.4706 67.1857 47.6701 66.6625 47.8419C66.571 47.8601 66.4847 47.8704 66.4036 47.8729C66.3225 47.8754 66.2519 47.8962 66.1917 47.9354C66.1079 47.9928 66.0046 48.0201 65.8817 48.0173C65.7588 48.0145 65.6843 48.0157 65.6581 48.0209C65.5274 48.0468 65.3808 48.0963 65.2186 48.1693C65.0538 48.2292 64.8694 48.259 64.6654 48.2587C64.2232 48.496 63.956 48.7937 63.864 49.1518C63.785 49.5073 63.7754 49.8355 63.8351 50.1363C63.9261 50.458 64.0498 50.8073 64.2062 51.1841C64.3756 51.5583 64.5344 52.0161 64.6827 52.5576C64.7009 52.6491 64.719 52.7407 64.7372 52.8322C64.7659 52.9081 64.7893 52.9918 64.8074 53.0834C64.9769 53.4575 65.0796 53.8042 65.1158 54.1232C65.1493 54.4292 65.1451 54.6476 65.1031 54.7782C65.103 54.8462 65.1223 55.0123 65.1612 55.2765C65.2105 55.525 65.1918 55.8073 65.105 56.1236C64.9157 56.8137 64.7017 57.4475 64.4629 58.025C64.2346 58.5869 63.9057 59.0871 63.4762 59.5258C63.34 59.6616 63.1974 59.7647 63.0482 59.835C62.8991 59.9054 62.6989 59.9587 62.4479 59.995ZM69.929 58.5101C69.7615 58.557 69.6203 58.5646 69.5053 58.533C69.3929 58.5146 69.2491 58.4751 69.074 58.4147C68.7422 58.2495 68.4457 58.0229 68.1847 57.7349C67.9367 57.4443 67.7971 57.1865 67.7661 56.9616C67.7689 56.8387 67.7481 56.7341 67.7038 56.6477C67.6725 56.5587 67.6569 56.5143 67.6569 56.5143C67.5655 56.4645 67.5315 56.4304 67.5551 56.4121C67.5761 56.3808 67.5879 56.3377 67.5906 56.2828C67.69 56.2358 67.6888 56.1613 67.587 56.0592C67.527 55.9623 67.4999 55.723 67.5057 55.3413C67.5219 54.9438 67.5696 54.5674 67.6485 54.2118C67.6854 54.055 67.7393 53.8472 67.8102 53.5884C67.8943 53.3271 67.9914 53.0631 68.1017 52.7966C68.2093 52.5169 68.3142 52.2922 68.4164 52.1224C68.6393 51.7383 68.8411 51.4196 69.0219 51.1662C69.2157 50.9102 69.4462 50.7014 69.7131 50.5396C69.9539 50.3831 70.2064 50.2854 70.4705 50.2466C70.7478 50.2051 71.0079 50.2487 71.2509 50.3772C71.5829 50.4064 71.8927 50.4945 72.1801 50.6413C72.4649 50.7751 72.6869 51.0029 72.8459 51.3248C73.0258 51.6833 73.1481 52.128 73.2126 52.6589C73.2877 53.1741 73.1965 53.8787 72.9389 54.7726C72.7917 55.332 72.6249 55.7933 72.4388 56.1565C72.2657 56.5171 72.0376 56.875 71.7547 57.2302C71.5478 57.4888 71.2637 57.7355 70.9025 57.9703C70.5413 58.2051 70.2168 58.385 69.929 58.5101ZM71.0477 55.2092C71.171 54.94 71.2564 54.6852 71.3038 54.4447C71.3643 54.2016 71.4014 53.8748 71.415 53.4643C71.4257 53.3126 71.4103 53.1322 71.3688 52.9229C71.3403 52.7111 71.2961 52.5227 71.2362 52.3579C71.1868 52.1774 71.1216 52.0884 71.0405 52.0909C70.8575 52.0593 70.681 52.0943 70.5108 52.196C70.3512 52.2821 70.1796 52.4793 69.9962 52.7876C69.8336 53.0645 69.7077 53.3206 69.6185 53.5558C69.5397 53.7753 69.4766 54.0393 69.4291 54.3478C69.392 54.6406 69.3588 55.021 69.3293 55.4891C69.3104 55.9414 69.3726 56.2893 69.5161 56.5327C69.6726 56.7735 69.8831 56.8065 70.1474 56.6317C70.4118 56.4568 70.7119 55.9827 71.0477 55.2092ZM76.4671 56.2745C76.4175 56.23 76.3195 56.1815 76.1731 56.1289C76.0268 56.0764 75.9484 56.024 75.938 55.9717C75.9328 55.9455 75.9198 55.9141 75.8989 55.8775C75.8911 55.8383 75.8611 55.8238 75.8088 55.8342C75.7618 55.8028 75.7528 55.655 75.782 55.391C75.8242 55.1243 75.8835 54.8067 75.9599 54.4381C76.0493 54.0669 76.1479 53.7075 76.2556 53.3599C76.3607 52.9992 76.4527 52.7091 76.5315 52.4895C76.5891 52.4373 76.6179 52.3772 76.618 52.3092C76.6286 52.2256 76.6208 52.1863 76.5947 52.1915C76.5947 52.1915 76.6157 52.1262 76.6577 51.9955C76.7102 51.8492 76.7522 51.7525 76.7836 51.7054C76.8519 51.5016 76.8941 51.3029 76.91 51.1094C76.9234 50.9029 76.904 50.7368 76.8519 50.6112C76.7866 50.5562 76.7239 50.5483 76.6637 50.5874C76.6035 50.6265 76.5734 50.6461 76.5734 50.6461C76.5237 50.6696 76.4504 50.7113 76.3535 50.7713C76.2672 50.8156 76.19 50.8717 76.1219 50.9396C75.8626 51.2086 75.6611 51.3573 75.5172 51.3859C75.3864 51.4118 75.2245 51.2809 75.0314 50.9929C74.9505 50.8595 74.9037 50.726 74.8908 50.5927C74.8779 50.4593 74.9094 50.3443 74.9854 50.2476C75.0719 50.1353 75.1845 50.0178 75.3233 49.8951C75.4594 49.7593 75.5498 49.6666 75.5943 49.617C75.72 49.4969 75.9032 49.3586 76.144 49.2021C76.3848 49.0455 76.5301 48.9555 76.5798 48.9321C76.8991 48.7599 77.1868 48.7028 77.443 48.7607C77.6965 48.8056 77.9094 48.9536 78.0817 49.2049C78.3089 49.3909 78.4472 49.6081 78.4965 49.8566C78.5458 50.1051 78.5152 50.4306 78.4048 50.8331L78.2671 51.1663C78.2276 51.3101 78.2275 51.3781 78.2668 51.3703C78.3191 51.3599 78.3688 51.3025 78.4161 51.1979C78.4449 51.1378 78.5078 51.0438 78.6048 50.9158C78.7017 50.7878 78.7698 50.7199 78.809 50.7121C78.809 50.7121 78.8208 50.703 78.8444 50.6847C78.881 50.6639 78.8902 50.6077 78.8721 50.5161C78.9035 50.4691 78.9349 50.4221 78.9664 50.375C79.0109 50.3254 79.0332 50.3006 79.0332 50.3006C79.0855 50.2902 79.1457 50.2511 79.2138 50.1832C79.2924 50.0997 79.4194 49.9521 79.5949 49.7405C79.718 49.6074 79.8384 49.5291 79.9561 49.5057C80.2387 49.3545 80.5001 49.4046 80.7403 49.6559C80.9936 49.9047 81.1657 50.258 81.2565 50.7157L81.0548 51.8568L81.5897 50.8535C81.6474 50.7333 81.7077 50.6262 81.7706 50.5321C81.8466 50.4355 81.9121 50.3545 81.9671 50.2892C81.9751 50.1925 82.0039 50.1324 82.0537 50.1089C82.1034 50.0855 82.1282 50.0737 82.1282 50.0737C82.1282 50.0737 82.1413 50.0711 82.1675 50.0659C82.191 50.0477 82.1989 50.0189 82.1911 49.9797C82.2461 49.9144 82.309 49.8543 82.3797 49.7995C82.4477 49.7316 82.4897 49.6689 82.5055 49.6114C82.7096 49.4758 82.9751 49.4095 83.302 49.4126C83.6262 49.4026 83.881 49.5219 84.0663 49.7706C84.189 49.9094 84.3013 50.0298 84.4031 50.132C84.5049 50.2341 84.5792 50.4029 84.6259 50.6383C84.6387 50.8396 84.6398 50.9822 84.6292 51.0658C84.6317 51.1469 84.6355 51.2345 84.6406 51.3286C84.6431 51.4097 84.652 51.5574 84.6674 51.7719C84.6359 51.8869 84.6252 52.0045 84.6355 52.1248C84.6589 52.2426 84.6809 52.3537 84.7017 52.4583C84.7355 52.6284 84.7654 52.7448 84.7914 52.8076C84.8149 52.8573 84.8724 52.8731 84.9639 52.8549C85.1392 52.7793 85.278 52.6906 85.3801 52.5888C85.4927 52.4713 85.6132 52.325 85.7416 52.15C85.9014 51.928 86.0662 51.8681 86.2361 51.9703C86.4164 52.0569 86.5417 52.1747 86.6121 52.3239C86.6486 52.371 86.6458 52.4939 86.6037 52.6925C86.5616 52.8912 86.5051 53.0859 86.4342 53.2767C86.3633 53.4675 86.2952 53.5694 86.2298 53.5824C86.1905 53.5902 86.1225 53.658 86.0255 53.786C85.9286 53.914 85.8513 54.0041 85.7937 54.0563C85.7203 54.166 85.6457 54.2692 85.5697 54.3659C85.5068 54.4599 85.423 54.5173 85.3184 54.5381C85.2661 54.5485 85.2046 54.5811 85.1339 54.6359C85.0737 54.675 84.9978 54.7037 84.9063 54.7218C84.7833 54.787 84.5767 54.8076 84.2865 54.7837C84.0093 54.7571 83.803 54.6078 83.6674 54.3356C83.5865 54.2021 83.4717 54.0346 83.323 53.8331C83.1873 53.6289 83.1132 53.3582 83.1006 53.0208C83.1062 52.775 83.096 52.5527 83.0702 52.354C83.0443 52.1552 83.0432 52.0127 83.0669 51.9264C83.0591 51.8872 83.0409 51.7957 83.0124 51.6518C82.9812 51.4949 82.946 51.4203 82.9068 51.4281C82.8545 51.4385 82.7694 51.5233 82.6515 51.6826C82.5336 51.842 82.3986 52.0523 82.2465 52.3136C82.0919 52.5617 81.9346 52.8308 81.7747 53.1209C81.6278 53.4083 81.5006 53.6918 81.393 53.9714C81.3038 54.1387 81.2342 54.336 81.1842 54.5634C81.1342 54.7908 81.0922 54.9215 81.0581 54.9555C80.9874 55.0783 80.833 55.1225 80.5951 55.0881C80.3703 55.0512 80.1887 54.9581 80.0503 54.8089C79.9955 54.7382 79.9407 54.7015 79.8857 54.6988C79.8282 54.683 79.7747 54.6529 79.7251 54.6083C79.6859 54.5481 79.6613 54.4239 79.6511 54.2356C79.654 54.0447 79.6806 53.7336 79.7309 53.3022C79.7865 52.829 79.8316 52.4055 79.8661 52.0316C79.9111 51.642 79.9336 51.4473 79.9336 51.4473C79.9233 51.3949 79.8356 51.4667 79.6705 51.6626C79.5029 51.8454 79.3104 52.0739 79.0929 52.3482C79.0038 52.5154 78.8832 52.7296 78.7312 52.9909C78.5922 53.2496 78.4283 53.554 78.2395 53.9041C78.0638 54.2516 77.8658 54.6579 77.6455 55.1231C77.3726 55.7345 77.1498 56.1186 76.977 56.2752C76.8173 56.4293 76.6473 56.429 76.4671 56.2745ZM88.6218 54.1883C88.5487 54.094 88.4102 54.0128 88.2064 53.9445C88.0156 53.8736 87.915 53.812 87.9046 53.7597C87.8942 53.7074 87.846 53.6354 87.7598 53.5438C87.6841 53.4364 87.615 53.3618 87.5523 53.3199C87.4713 53.2544 87.4533 53.0609 87.4982 52.7393C87.5405 52.4046 87.6222 51.9942 87.7432 51.508C87.8642 51.0218 88.0035 50.5252 88.1611 50.0182C88.245 49.8928 88.3224 49.7347 88.3932 49.5439C88.4641 49.3531 88.5205 49.2264 88.5625 49.1637C88.5521 49.1114 88.5626 49.0617 88.5941 49.0147C88.6229 48.9546 88.6635 48.9193 88.7158 48.909L88.8104 48.5639C88.8262 48.5064 88.8839 48.3862 88.9835 48.2033C89.0963 48.0178 89.2325 47.8141 89.3924 47.592C89.5496 47.3569 89.7094 47.1349 89.8719 46.926C90.0474 46.7144 90.1927 46.5564 90.3079 46.452C90.5462 46.2144 90.8105 46.0736 91.1009 46.0295C91.4043 45.9829 91.6775 46.0238 91.9204 46.1523C91.9675 46.1838 92.0681 46.2454 92.2222 46.3371C92.3894 46.4263 92.5723 46.5259 92.7709 46.636C92.9825 46.7435 93.1654 46.8432 93.3196 46.9349L94.1739 47.4382L94.0351 48.4853C93.9689 49.0422 94.014 49.509 94.1703 49.8857C94.3267 50.2625 94.5184 50.5779 94.7455 50.8319C94.8395 50.9628 94.9465 51.057 95.0667 51.1147C95.2 51.1699 95.3608 51.1923 95.5491 51.1821C95.6563 51.1744 95.7622 51.1942 95.8667 51.2414C95.9712 51.2887 96.0378 51.3842 96.0663 51.5281C96.1286 51.8419 96.1152 52.0825 96.0261 52.2497C95.9474 52.4013 95.8453 52.5031 95.7197 52.5552C95.2985 52.6932 94.8774 52.7292 94.4565 52.6632C94.0356 52.5972 93.6085 52.2945 93.1752 51.7552C93.1074 51.6872 93.0069 51.5576 92.8738 51.3665C92.7512 51.1597 92.6769 51.025 92.6508 50.9622C92.6115 51.0379 92.5564 51.1372 92.4856 51.26C92.4253 51.3671 92.3637 51.4677 92.3008 51.5618C91.5592 52.6877 90.8834 53.4607 90.2735 53.8808C89.6741 54.2853 89.1236 54.3877 88.6218 54.1883ZM89.3776 52.3459C89.4717 52.3408 89.6065 52.2665 89.7819 52.1229C89.9547 51.9663 90.1786 51.7247 90.4537 51.3983C90.8231 50.9307 91.1269 50.5442 91.3653 50.2386C91.6037 49.933 91.8213 49.5568 92.0181 49.1099L92.3095 48.318C92.119 48.0432 91.9624 47.8704 91.8396 47.7996C91.7168 47.7288 91.6031 47.7038 91.4985 47.7246C91.3284 47.7583 91.1478 47.9097 90.9565 48.1788C90.7626 48.4347 90.5568 48.8018 90.3391 49.28C90.1318 49.7426 89.9061 50.3175 89.6619 51.0049C89.549 51.3263 89.4741 51.6335 89.437 51.9263C89.3974 52.206 89.3776 52.3459 89.3776 52.3459ZM99.3334 52.8574C98.6141 53.0002 98.0168 52.9013 97.5414 52.5606C97.079 52.2174 96.7622 51.6142 96.5909 50.7511C96.4974 50.2803 96.4799 49.7468 96.5383 49.1507C96.6098 48.552 96.7362 47.956 96.9175 47.3627C97.1118 46.7667 97.3466 46.2376 97.6219 45.7751C97.8945 45.2996 98.1918 44.9484 98.5138 44.7213C98.6316 44.63 98.7598 44.557 98.8985 44.5023C99.0477 44.4319 99.1942 44.3824 99.338 44.3538C99.495 44.3227 99.6676 44.302 99.8559 44.2918C100.055 44.266 100.246 44.2689 100.429 44.3005C100.747 44.3324 101.044 44.457 101.318 44.6744C101.606 44.8893 101.799 45.2452 101.897 45.7422C101.923 45.873 101.939 46.0194 101.944 46.1815C101.946 46.3306 101.929 46.4835 101.892 46.6404C101.808 47.1057 101.628 47.5696 101.353 48.032C101.09 48.4918 100.785 48.8379 100.437 49.0701C100.343 49.1432 100.246 49.2032 100.147 49.2501C100.058 49.2813 99.961 49.3073 99.8563 49.3281C99.5817 49.3826 99.3254 49.3927 99.0875 49.3584C98.8627 49.3214 98.6458 49.2557 98.4367 49.1613L98.2525 49.0551L98.1934 49.2708C98.1511 49.5374 98.1273 49.7597 98.1218 49.9375C98.1294 50.1127 98.141 50.2395 98.1565 50.318C98.1877 50.4749 98.2267 50.6371 98.2735 50.8045C98.3177 50.9589 98.3829 51.0819 98.4691 51.1735C98.5344 51.2285 98.6101 51.2678 98.6964 51.2915C98.7957 51.3126 98.9108 51.3101 99.0416 51.2842C99.12 51.2686 99.192 51.2543 99.2573 51.2413C99.3332 51.2127 99.396 51.1866 99.4457 51.1632C99.6708 51.0641 99.8435 50.9415 99.964 50.7952C100.095 50.6333 100.236 50.4897 100.388 50.3644L100.459 50.3096L100.428 50.2546C100.627 50.0928 100.763 49.991 100.836 49.9493C100.907 49.8945 100.959 49.8501 100.993 49.8161C101.035 49.7534 101.089 49.7156 101.154 49.7026C101.332 49.6401 101.519 49.6574 101.715 49.7544C101.921 49.8358 102.043 49.968 102.079 50.1511C102.095 50.2296 102.06 50.3655 101.977 50.5589C101.906 50.7497 101.802 50.947 101.666 51.1507C101.54 51.3388 101.401 51.4955 101.249 51.6208C101.213 51.6417 101.177 51.6691 101.143 51.703C101.107 51.7239 101.071 51.7513 101.037 51.7852L101.057 51.7813C100.97 51.9616 100.868 52.0635 100.751 52.0868L100.594 52.118C100.559 52.2199 100.409 52.3517 100.142 52.5135C99.8776 52.6883 99.6081 52.8029 99.3334 52.8574ZM99.4152 47.9272C99.5329 47.9038 99.6336 47.8635 99.7174 47.806C99.8142 47.746 99.9032 47.6808 99.9844 47.6103C100.254 47.3257 100.4 46.9977 100.421 46.6265C100.443 46.2552 100.357 45.9936 100.163 45.8416C100.13 45.8076 100.092 45.7879 100.05 45.7826C100.005 45.7642 99.957 45.7603 99.9047 45.7706C99.7608 45.7992 99.6064 45.8774 99.4415 46.0053C99.2897 46.1306 99.1456 46.2951 99.0093 46.4989C98.8731 46.7026 98.7564 46.9365 98.6592 47.2005L98.486 47.663C98.5095 47.6448 98.5278 47.6343 98.5409 47.6317C98.5645 47.6135 98.5828 47.603 98.5959 47.6004C98.7136 47.5771 98.7998 47.6007 98.8546 47.6714C98.9095 47.7421 98.9708 47.8115 99.0387 47.8796C99.1197 47.9451 99.2451 47.9609 99.4152 47.9272ZM105.184 50.6563C104.915 50.601 104.681 50.4842 104.483 50.3061C104.295 50.1124 104.17 49.8585 104.107 49.5447C104.081 49.4139 104.063 49.1864 104.053 48.8621C104.043 48.5378 104.045 48.1705 104.059 47.7599C104.073 47.3494 104.091 46.9651 104.116 46.6069C104.2 46.3455 104.238 46.0932 104.23 45.85C104.236 45.6042 104.234 45.4552 104.223 45.4029C104.218 45.2407 104.222 45.0224 104.236 44.7478C104.249 44.4733 104.268 44.2249 104.292 44.0027C104.326 43.7648 104.354 43.6302 104.375 43.5988C104.427 43.5204 104.531 43.4591 104.685 43.4149C104.839 43.3707 105 43.3592 105.168 43.3803C105.332 43.3884 105.454 43.4526 105.532 43.573C105.707 43.7014 105.832 43.9213 105.908 44.2325C105.996 44.5412 106.01 44.9191 105.949 45.3662C105.883 45.6511 105.827 45.9818 105.779 46.3583C105.731 46.7347 105.692 47.0825 105.66 47.4014C105.638 47.7047 105.632 47.91 105.639 48.0172L104.929 48.1377C105.11 47.8844 105.276 47.627 105.428 47.3658C105.578 47.0914 105.685 46.8798 105.751 46.7308C105.914 46.3859 106.054 46.0998 106.172 45.8725C106.3 45.6295 106.467 45.3381 106.671 44.9985C106.873 44.6458 107.113 44.3807 107.39 44.2033C107.665 44.0128 107.874 43.9033 108.018 43.8748C108.316 43.87 108.601 43.9698 108.873 44.1741C109.155 44.3628 109.369 44.6874 109.515 45.1478C109.551 45.3309 109.574 45.5506 109.584 45.8068C109.608 46.0605 109.619 46.1874 109.619 46.1874C109.619 46.1874 109.698 46.0358 109.855 45.7327C110.026 45.427 110.261 45.0744 110.563 44.6747C110.775 44.4423 110.996 44.2897 111.226 44.2168C111.454 44.1308 111.679 44.1678 111.901 44.3276C112.277 44.4432 112.589 44.7143 112.837 45.1409C113.085 45.5675 113.24 46.0737 113.302 46.6595C113.33 47.0073 113.384 47.282 113.465 47.4834C113.556 47.6692 113.644 47.8354 113.727 47.982C113.944 48.1836 114.012 48.3877 113.93 48.5941C113.846 48.7875 113.759 48.8933 113.667 48.9115C113.536 48.9374 113.335 48.9502 113.063 48.9498C112.791 48.9494 112.531 48.9059 112.283 48.8192C112.047 48.73 111.908 48.5742 111.864 48.3518L111.622 47.1356C111.565 46.8479 111.51 46.6412 111.458 46.5156C111.417 46.3743 111.366 46.2893 111.306 46.2604C111.146 46.2105 110.981 46.3044 110.811 46.5421C110.641 46.7798 110.468 47.1064 110.292 47.5219C110.127 47.9218 109.951 48.3713 109.764 48.8704C109.596 49.3252 109.443 49.6139 109.304 49.7366C109.163 49.8462 109.011 49.8695 108.849 49.8065C108.543 49.7721 108.335 49.6842 108.226 49.5428C108.127 49.3858 108.082 49.1975 108.093 48.9778C108.115 48.7425 108.136 48.4392 108.157 48.0679C108.192 47.6941 108.222 47.3346 108.249 46.9894C108.273 46.6312 108.283 46.3711 108.278 46.2089C108.205 46.1147 108.107 46.1002 107.984 46.1654C107.871 46.2149 107.759 46.2984 107.646 46.4159C107.51 46.5517 107.362 46.6966 107.202 46.8506C107.055 47.0021 106.902 47.2908 106.742 47.7168C106.634 47.9964 106.512 48.3061 106.376 48.6458C106.237 48.9725 106.106 49.2704 105.982 49.5396C105.872 49.8061 105.774 49.9956 105.687 50.1079C105.642 50.3614 105.587 50.5287 105.522 50.6097C105.454 50.6776 105.341 50.6931 105.184 50.6563ZM117.288 45.644C116.935 45.782 116.617 45.6887 116.335 45.3641C116.051 45.0264 115.933 44.3633 115.981 43.375C116.029 43.2024 116.064 43.0391 116.088 42.8848C116.109 42.7175 116.111 42.5881 116.092 42.4965C116.111 42.3161 116.137 42.107 116.172 41.8691C116.217 41.6155 116.265 41.3815 116.318 41.1672C116.368 40.9398 116.406 40.7895 116.432 40.7163C116.485 40.7059 116.528 40.6497 116.562 40.5478C116.609 40.4433 116.624 40.3452 116.606 40.2537C116.585 40.1491 116.581 40.0275 116.594 39.8889C116.621 39.7477 116.655 39.6458 116.697 39.5831C116.684 39.5177 116.696 39.4406 116.732 39.3517C116.769 39.2629 116.782 39.1923 116.772 39.14C116.762 39.0877 116.766 39.0393 116.784 38.9949C116.815 38.9479 116.826 38.8982 116.816 38.8459C116.892 38.6133 116.981 38.2761 117.084 37.8343C117.197 37.3769 117.3 36.9011 117.392 36.407C117.497 35.9104 117.58 35.4725 117.641 35.0934C117.702 34.7144 117.724 34.4856 117.709 34.4071C117.714 34.2973 117.734 34.1914 117.768 34.0895C117.802 33.9876 117.874 33.9393 117.984 33.9447C118.028 33.8951 118.103 33.8599 118.207 33.8391C118.31 33.8053 118.387 33.7831 118.439 33.7728C118.439 33.7728 118.503 33.7872 118.631 33.8162C118.759 33.8451 118.879 33.9028 118.992 33.9893C119.115 34.0601 119.198 34.1726 119.242 34.327C119.287 34.4813 119.324 34.637 119.355 34.7939C119.392 35.045 119.356 35.3443 119.248 35.692C119.14 36.0396 119.02 36.4238 118.886 36.8446C118.804 37.119 118.72 37.3804 118.633 37.6287C118.56 37.8744 118.528 38.0234 118.539 38.0757C118.549 38.128 118.538 38.2117 118.507 38.3267C118.475 38.4417 118.442 38.5842 118.408 38.7541C118.356 38.9004 118.308 39.0729 118.266 39.2716C118.237 39.4677 118.212 39.6494 118.191 39.8167C118.167 39.971 118.159 40.0677 118.167 40.1069C118.164 40.1618 118.155 40.218 118.139 40.2755C118.137 40.3305 118.114 40.3893 118.072 40.452C118.02 40.4623 117.995 40.5081 117.998 40.5891C118.011 40.6545 118.017 40.6872 118.017 40.6872C118.027 40.7395 118.019 40.8703 117.993 41.0794C117.977 41.2729 117.93 41.5134 117.851 41.8009C117.74 42.5434 117.674 43.1342 117.652 43.5735C117.628 43.9997 117.631 44.3593 117.662 44.6522C117.698 44.9712 117.669 45.2013 117.575 45.3424C117.478 45.4704 117.382 45.5709 117.288 45.644ZM116.852 48.891C116.598 49.0502 116.378 49.1414 116.193 49.1646C116.009 49.201 115.79 49.1562 115.534 49.0303C115.22 48.8206 115.077 48.5772 115.103 48.3001C115.14 48.0073 115.324 47.699 115.654 47.3752C115.882 47.1533 116.054 47.0307 116.172 47.0073C116.3 46.9683 116.499 46.9764 116.768 47.0317C117.267 47.2181 117.525 47.4865 117.54 47.8369C117.552 48.1743 117.323 48.5256 116.852 48.891Z" fill="white"/>
<path d="M3.69629 11.603C3.69629 17.3598 5.13408 22.0133 8.93822 26.2854C13.8607 31.8134 21.5002 32.603 28.6963 32.603" stroke="white" stroke-width="1.5" stroke-linecap="round"/>
<path d="M1.19629 23.603C0.696226 19.103 1.19598 17.1031 2.19598 14.1031C2.36265 13.603 3.69598 10.496 3.69598 12.0244" stroke="white" stroke-width="1.5" stroke-linecap="round"/>
<path d="M8.69629 16.603C8.14073 16.0767 7.46883 15.177 7.02962 14.7609C6.19629 13.9714 5.64073 13.4451 5.08518 12.9188C4.52962 12.3925 4.52962 12.3925 3.69629 11.603" stroke="white" stroke-width="1.5" stroke-linecap="round"/>
</svg>
