<svg width="20" height="21" viewBox="0 0 20 21" fill="none" xmlns="http://www.w3.org/2000/svg">
<g id="Group 12">
<rect id="Rectangle 3" y="0.5" width="20" height="20" rx="5" fill="url(#paint0_linear_587_381)"/>
<path id="Vector" d="M14.8928 13.0839C14.5205 12.3801 13.2278 11.617 13.1709 11.5836C13.0048 11.4891 12.8315 11.439 12.6693 11.439C12.5737 11.439 12.485 11.4564 12.4053 11.4898C12.1599 11.5928 12.027 11.8547 11.8501 12.0535C11.7478 12.1685 11.6621 12.2594 11.6306 12.2821C11.1901 12.5809 10.8453 12.547 10.4638 12.1654L8.33453 10.0356C7.95543 9.65649 7.92057 9.30736 8.21736 8.86925C8.24027 8.83763 8.33101 8.75202 8.44574 8.64982C8.64502 8.4723 8.90731 8.33878 9.01026 8.09256C9.0203 8.06853 9.0289 8.04367 9.03601 8.01804C9.09367 7.80982 9.05121 7.5649 8.91514 7.32628C8.88307 7.27139 8.11967 5.97835 7.41633 5.60624C7.28509 5.53671 7.13715 5.5 6.98884 5.5C6.74451 5.5 6.51464 5.5953 6.34186 5.76792L5.87137 6.2383C5.12725 6.98234 4.85789 7.82576 5.07033 8.74502C5.24756 9.51113 5.76403 10.3264 6.60566 11.1679L9.33169 13.8944C10.3969 14.9597 11.4124 15.5 12.3501 15.5H12.3503C13.0399 15.5 13.6828 15.2069 14.2606 14.629L14.7309 14.1586C15.0168 13.8729 15.0817 13.4409 14.8928 13.0839Z" fill="white"/>
</g>
<defs>
<linearGradient id="paint0_linear_587_381" x1="20" y1="20" x2="0" y2="4.76837e-07" gradientUnits="userSpaceOnUse">
<stop stop-color="#EC7716"/>
<stop offset="1" stop-color="#FFD645"/>
</linearGradient>
</defs>
</svg>
