<svg width="40" height="40" viewBox="0 0 40 40" fill="none" xmlns="http://www.w3.org/2000/svg">
<rect width="40" height="40" rx="10" fill="url(#paint0_linear_554_1704)"/>
<path d="M19.6665 6.5C14.7612 6.5 10.7412 10.508 10.7412 15.3998C10.7412 17.2952 11.3466 19.0568 12.3711 20.5046L18.5772 31.2334C19.4463 32.369 20.0241 32.1532 20.7468 31.1736L27.5922 19.5245C27.7302 19.2743 27.8388 19.0079 27.9332 18.7358C28.3676 17.6772 28.591 16.544 28.5908 15.3998C28.5912 10.508 24.5724 6.5 19.6665 6.5ZM19.6665 10.67C22.3083 10.67 24.4088 12.7658 24.4088 15.3998C24.4088 18.0338 22.3083 20.1287 19.6665 20.1287C17.025 20.1287 14.9235 18.0341 14.9235 15.3998C14.9235 12.7658 17.025 10.67 19.6665 10.67Z" fill="white"/>
<path d="M25.3406 21.1724L25.3262 21.2102C25.3306 21.1988 25.3342 21.1871 25.3388 21.1757L25.3406 21.1724Z" fill="white"/>
<defs>
<linearGradient id="paint0_linear_554_1704" x1="0" y1="0" x2="45.9615" y2="31.2251" gradientUnits="userSpaceOnUse">
<stop stop-color="#EC7716"/>
<stop offset="1" stop-color="#FFD645"/>
</linearGradient>
</defs>
</svg>
