<svg width="20" height="21" viewBox="0 0 20 21" fill="none" xmlns="http://www.w3.org/2000/svg">
<rect y="0.5" width="20" height="20" rx="5" fill="#40C351"/>
<path fill-rule="evenodd" clip-rule="evenodd" d="M3.62256 16.9343L4.52056 13.656C3.96656 12.6966 3.67523 11.608 3.67556 10.493C3.67723 7.00463 6.51589 4.16663 10.0046 4.16663C11.6976 4.16729 13.2862 4.82629 14.4812 6.02196C15.6759 7.21796 16.3339 8.80729 16.3332 10.498C16.3319 13.9863 13.4926 16.8246 10.0046 16.8246H10.0019C8.94289 16.8243 7.90189 16.5586 6.97756 16.0543L3.62256 16.9343Z" fill="white"/>
<path fill-rule="evenodd" clip-rule="evenodd" d="M3.62258 17.101C3.57858 17.101 3.53591 17.0837 3.50424 17.0517C3.46258 17.0093 3.44624 16.9477 3.46191 16.8907L4.34158 13.6787C3.79624 12.71 3.50858 11.61 3.50924 10.4933C3.51058 6.91267 6.42424 4 10.0046 4C11.7412 4.00067 13.3729 4.677 14.5992 5.90433C15.8256 7.132 16.5006 8.76333 16.4999 10.498C16.4986 14.0783 13.5846 16.9913 10.0046 16.9913C8.94158 16.991 7.88991 16.7287 6.95658 16.2323L3.66491 17.0953C3.65091 17.0993 3.63691 17.101 3.62258 17.101Z" fill="white"/>
<path fill-rule="evenodd" clip-rule="evenodd" d="M10.0048 4.16671C11.6978 4.16737 13.2864 4.82637 14.4814 6.02204C15.6761 7.21804 16.3341 8.80737 16.3334 10.498C16.3321 13.9864 13.4928 16.8247 10.0048 16.8247H10.0021C8.94311 16.8244 7.90211 16.5587 6.97778 16.0544L3.62278 16.9344L4.52078 13.656C3.96678 12.6967 3.67544 11.608 3.67578 10.493C3.67744 7.00471 6.51611 4.16671 10.0048 4.16671ZM10.0048 3.83337C6.33278 3.83337 3.34411 6.82071 3.34244 10.493C3.34211 11.6154 3.62544 12.7214 4.16278 13.7004L3.30111 16.8467C3.26978 16.9617 3.30178 17.0844 3.38578 17.169C3.44911 17.233 3.53478 17.268 3.62278 17.268C3.65111 17.268 3.67944 17.2644 3.70744 17.257L6.93644 16.4104C7.87911 16.8997 8.93578 17.158 10.0021 17.1584C13.6768 17.1584 16.6654 14.1707 16.6671 10.4984C16.6678 8.71871 15.9754 7.04537 14.7178 5.78671C13.4594 4.52771 11.7858 3.83404 10.0048 3.83337Z" fill="#CFD8DC"/>
<path fill-rule="evenodd" clip-rule="evenodd" d="M13.7252 6.77735C12.7319 5.78335 11.4116 5.23568 10.0062 5.23535C7.1049 5.23535 4.74523 7.59402 4.7439 10.4934C4.74356 11.487 5.02156 12.4544 5.54823 13.292L5.67356 13.491L5.1419 15.4314L7.1329 14.9094L7.32523 15.0234C8.13256 15.5027 9.05856 15.756 10.0026 15.7564H10.0046C12.9039 15.7564 15.2636 13.3974 15.2646 10.4977C15.2649 9.09268 14.7186 7.77135 13.7252 6.77735Z" fill="#40C351"/>
<path fill-rule="evenodd" clip-rule="evenodd" d="M8.42266 7.8483C8.30433 7.58496 8.17966 7.57963 8.06666 7.57496C7.97433 7.57096 7.869 7.5713 7.76366 7.5713C7.65833 7.5713 7.487 7.61096 7.342 7.7693C7.197 7.92763 6.78833 8.30996 6.78833 9.08796C6.78833 9.86596 7.355 10.618 7.434 10.7233C7.513 10.8286 8.528 12.4763 10.1353 13.1103C11.471 13.637 11.743 13.5323 12.033 13.506C12.323 13.4796 12.9687 13.1236 13.1003 12.7543C13.232 12.385 13.232 12.0686 13.1927 12.0026C13.153 11.9366 13.0477 11.8973 12.8897 11.818C12.7317 11.7386 11.954 11.3563 11.809 11.3036C11.664 11.251 11.5587 11.2246 11.453 11.383C11.3477 11.541 11.0447 11.8973 10.9523 12.0026C10.86 12.1083 10.7677 12.1216 10.6097 12.0423C10.4517 11.963 9.94233 11.7963 9.338 11.2576C8.868 10.8386 8.55066 10.321 8.45833 10.1626C8.366 10.0046 8.44833 9.91896 8.52766 9.83996C8.59866 9.76896 8.68566 9.6553 8.765 9.56296C8.844 9.47063 8.87033 9.40463 8.923 9.2993C8.97566 9.19363 8.94933 9.1013 8.90966 9.0223C8.87066 8.94296 8.56333 8.16096 8.42266 7.8483Z" fill="white"/>
</svg>
